<svg width="611" height="90" viewBox="0 0 611 90" fill="none" xmlns="http://www.w3.org/2000/svg">
<path d="M58.2 18.6V18.9C58.2 19.5 58 20.0667 57.6 20.6H71.4C70.9333 21.2667 70.2333 21.6 69.3 21.6H40.7V22.1H33.1V23.6H29.7V25.6H33.1V27.1H32.2V28.6H31.8V29H58.4C59.0667 29 59.6333 29.2 60.1 29.6H60.3C60.6333 29.8667 60.9 30.2 61.1 30.6H60.5C60.7 30.8667 60.8 31.2333 60.8 31.7V32.6H60.4V33.1H63V35.1H60.7V36.1H61.3V37.6H61.6V38.1H62.5V39.6H61V40.1H55.9V42.1H54.7V43.6H62.3V45.6H59.5V46.8C59.5 47.1333 59.4667 47.4 59.4 47.6H59.2C58.9333 48.3333 58.5333 48.8333 58 49.1H56C55.6667 49.3667 55.2 49.5 54.6 49.5H28V50.6H31V51.6H35.5V53.1H26.1V54.1H34.7V55.6H28.2V56.1H33.2V58.1H30.4V60.1H31.7V60.6H31.1V62.6H32.7V63.1H32V63.6H30.6V64.6H32V65.6H30.6V67.1H35.3V67.6H38.4V68.3C38.4 68.3667 38.3667 68.4333 38.3 68.5C38.3 68.5 38.3 68.5333 38.3 68.6H46.7C46.7 68.8 46.6667 68.9667 46.6 69.1H32.6C32.4667 69.7 32.1 70.2 31.5 70.6H38.7C38.3667 70.8667 37.9 71 37.3 71H18.2C17.6 71 17.1333 70.8667 16.8 70.6H9.5C9.03333 70.2667 8.66667 69.7667 8.4 69.1H22.3C22.3 68.9 22.2667 68.7333 22.2 68.6H13.9V67.6H10.8V67.1H6.1V65.6H7.5V64.6H6.1V63.6H7.5V63.1H8.2V62.6H6.6V60.6H7.2V60.1H5.9V58.1H8.7V56.1H3.7V55.6H10.2V54.1H1.6V53.1H11V51.6H6.5V50.6H3.5V49.1H5.5V47.6H5.7V45.6H8.5V43.6H0.9V42.1H2.1V40.1H7.2V39.6H8.7V38.1H7.8V37.6H7.5V36.1H6.9V35.1H9.2V33.1H6.6V32.6H7V30.6H7.5V29.6H7.3V28.6H7.7V27.1H8.6V25.6H5.2V23.6H8.6V22.1H16.2V20.6H2.4V18.6H17.6V17.1H2.9V16.1H3.3V15.1H11.8V13.1H8.1V11.1H9.8V9.1H7.2V7.09999H7.5V5.6H6.6V4.1H7.1V3.7C7.1 3.43333 7.13333 3.23333 7.2 3.1H3.2C3.26667 2.76666 3.36667 2.5 3.5 2.3C3.7 2.03333 3.9 1.8 4.1 1.6H3.3C3.83333 1.2 4.4 0.999995 5 0.999995H55.4C56.0667 0.999995 56.6333 1.2 57.1 1.6H57.9C58.3667 1.93333 58.7 2.43333 58.9 3.1H62.8C62.8667 3.23333 62.9 3.43333 62.9 3.7V4.1H62.4V5.6H63.3V7.09999H63V9.1H65.6V11.1H63.9V13.1H67.6V15.1H59.1V16.1H58.7V17.1H73.4V18.6H58.2ZM115.56 26.6H119.36V28.6H119.16V30.6H115.66V32.1H116.56V34.1H115.76V36.1H113.96V36.6H107.66V37.3C107.66 37.4333 107.627 37.5667 107.56 37.7C107.56 37.8333 107.527 37.9667 107.46 38.1H109.76C109.427 39.3667 108.56 40 107.16 40H94.2602C93.9935 40 93.7268 40 93.4602 40C93.2602 40 93.0602 40.0333 92.8602 40.1H96.8602C96.5268 40.1667 96.2268 40.2333 95.9602 40.3C95.6935 40.3667 95.3935 40.4667 95.0602 40.6H98.3602C98.1602 40.6667 97.8602 40.8333 97.4602 41.1H99.3602L98.7602 41.6H99.2602C98.8602 42 98.5602 42.5 98.3602 43.1H95.3602C95.2268 43.3667 95.1602 43.5333 95.1602 43.6H94.1602C94.1602 43.6667 94.1268 43.7333 94.0602 43.8C94.0602 43.8667 94.0602 43.9667 94.0602 44.1H95.2602C95.1935 44.2333 95.1602 44.4 95.1602 44.6C95.1602 44.7333 95.1268 44.9 95.0602 45.1H95.6602V46.6H94.2602V47.6H95.6602V49.1H97.1602V51.1H94.9602V51.6H93.3602V52.1H99.3602V53.6H96.3602V54.6H97.3602V55.6H95.0602V57.6H93.7602V58.1H92.4602V59.6H95.8602V61.1H94.0602V62.6H95.8602V63.1H95.6602V64.1H93.4602V65.1H95.0602V67.1H95.4602V68.6H95.0602C94.9268 69.5333 94.4935 70.2 93.7602 70.6H92.8602C92.5268 70.8667 92.0602 71 91.4602 71H72.4602C71.8602 71 71.3935 70.8667 71.0602 70.6H71.9602C71.2268 70.2 70.7935 69.5333 70.6602 68.6H71.0602V67.1H70.6602V65.1H69.0602V64.1H71.2602V63.1H71.4602V62.6H69.6602V61.1H71.4602V59.6H68.0602V58.1H69.3602V57.6H70.6602V55.6H72.9602V54.6H71.9602V53.6H74.9602V52.1H68.9602V51.6H70.5602V51.1H72.7602V49.1H71.2602V47.6H69.8602V46.6H71.2602V45.1H70.6602V44.1H69.4602V43.6H70.4602V43.1H73.4602V41.6H72.9602V41.1H71.1602V40.6H67.8602V40.1H63.8602V38.1H61.6602V36.6H67.9602V36.1H69.7602V34.1H70.5602V32.1H69.6602V30.6H73.1602V28.6H73.3602V26.6H69.5602V25.1H72.7602V23.1H69.6602V22.6H70.6602V21.7C70.6602 21.3667 70.7268 21 70.8602 20.6H70.7602C71.2268 19.5333 72.0602 19 73.2602 19H90.7602C91.8935 19 92.6935 19.5333 93.1602 20.6H93.3602C93.4935 21 93.5602 21.3667 93.5602 21.7V22.6H92.5602V23.1H95.6602V23.4L96.0602 23.1H96.2602C96.3935 22.9667 96.5268 22.8667 96.6602 22.8C96.7935 22.7333 96.8935 22.6667 96.9602 22.6H97.1602C98.4935 21.7333 99.7935 21.0667 101.06 20.6H101.26C102.593 20.0667 103.927 19.6667 105.26 19.4C106.593 19.1333 107.993 19 109.46 19H114.26C115.46 19 116.293 19.5333 116.76 20.6H116.56C116.693 21 116.76 21.3667 116.76 21.7V22.6H116.66V23.1H116.46V25.1H115.56V26.6ZM173.939 65.6V66.6H182.639V68.3C182.639 68.4333 182.606 68.5333 182.539 68.6H177.839C177.706 69.5333 177.272 70.2 176.539 70.6H175.639C175.306 70.8667 174.839 71 174.239 71H156.739C156.139 71 155.672 70.8667 155.339 70.6H156.139C155.472 70.1333 155.072 69.4667 154.939 68.6H159.739V66.6H155.739C155.406 66.9333 155.039 67.2667 154.639 67.6C154.306 67.9333 153.939 68.2667 153.539 68.6H152.439C151.239 69.4667 150.039 70.1333 148.839 70.6H145.639C145.172 70.8 144.639 70.9667 144.039 71.1C143.506 71.3 142.939 71.4667 142.339 71.6H141.539C140.872 71.7333 140.172 71.8333 139.439 71.9C138.772 71.9667 138.072 72 137.339 72C136.539 72 135.739 71.9667 134.939 71.9C134.206 71.8333 133.472 71.7333 132.739 71.6H133.539C132.872 71.4667 132.206 71.3 131.539 71.1C130.939 70.9667 130.339 70.8 129.739 70.6H132.839C131.372 70.0667 130.039 69.4 128.839 68.6H129.939C129.472 68.2667 129.039 67.9333 128.639 67.6C128.239 67.2667 127.839 66.9333 127.439 66.6H122.439L121.539 65.6C121.472 65.4667 121.372 65.3 121.239 65.1C121.106 64.9 120.972 64.7333 120.839 64.6H123.839C123.706 64.3333 123.539 64.1 123.339 63.9C123.206 63.6333 123.072 63.3667 122.939 63.1H122.039C122.039 63.0333 121.972 62.8667 121.839 62.6H120.939L120.639 62.1H120.739L120.139 60.6H119.639C119.572 60.3333 119.506 60.1 119.439 59.9C119.372 59.6333 119.306 59.3667 119.239 59.1H115.439C115.239 58.3667 115.139 57.7 115.139 57.1H118.439V56.1C118.439 55.7667 118.439 55.4333 118.439 55.1C118.439 54.7 118.472 54.3667 118.539 54.1H121.539C121.606 53.7667 121.672 53.4333 121.739 53.1C121.806 52.7 121.872 52.3667 121.939 52.1H119.139L119.339 51.6H119.439L119.639 51.1H119.539C119.672 50.8333 119.806 50.6 119.939 50.4C120.072 50.1333 120.172 49.8667 120.239 49.6H114.339L114.939 48.6H112.739C112.939 48.4 113.072 48.2333 113.139 48.1H116.739C116.872 47.9667 117.006 47.8 117.139 47.6C117.272 47.4 117.406 47.2333 117.539 47.1H117.739C118.406 46.3 119.106 45.6333 119.839 45.1H111.639C112.106 44.7667 112.606 44.4333 113.139 44.1C113.606 43.7 114.106 43.3667 114.639 43.1H120.139L121.039 42.6H123.839C123.972 42.4667 124.139 42.3667 124.339 42.3C124.539 42.2333 124.706 42.1667 124.839 42.1H126.039C127.239 41.5 128.539 41 129.939 40.6H136.039C136.972 40.2667 137.906 40 138.839 39.8C139.839 39.5333 140.872 39.3 141.939 39.1H139.439L141.039 38.8L151.639 37.1V36.6H156.739V36.1H147.139V35.6H152.839C152.839 35.2667 152.839 35 152.839 34.8C152.839 34.5333 152.806 34.3 152.739 34.1C152.672 33.5 152.439 33 152.039 32.6H150.339C150.272 32.5333 150.106 32.4333 149.839 32.3L149.139 32.6H147.439C147.172 32.8 146.906 33.0333 146.639 33.3C146.372 33.5 146.072 33.7667 145.739 34.1H145.839C145.106 34.8333 144.172 35.2 143.039 35.2H126.039C125.039 35.2 124.372 34.8333 124.039 34.1H123.939C123.739 33.7667 123.672 33.4 123.739 33V32.6H125.339C125.406 32.4667 125.439 32.3 125.439 32.1H119.039C119.039 31.8333 119.106 31.5 119.239 31.1H133.639C133.639 31.0333 133.706 30.8667 133.839 30.6H124.939C125.139 29.9333 125.439 29.2667 125.839 28.6H127.539C127.739 28.2667 127.972 27.9333 128.239 27.6C128.506 27.2667 128.772 26.9333 129.039 26.6H121.539L122.439 25.6H136.939C137.206 25.3333 137.472 25.1 137.739 24.9C138.072 24.6333 138.372 24.3667 138.639 24.1H129.439L130.039 23.6H127.239C127.572 23.3333 127.939 23.1 128.339 22.9C128.739 22.6333 129.139 22.3667 129.539 22.1H134.239C135.639 21.3 137.106 20.6333 138.639 20.1H139.339C141.139 19.4333 143.139 18.9333 145.339 18.6C147.606 18.2 150.072 18 152.739 18C158.206 18 162.839 18.7 166.639 20.1H165.839C166.572 20.3667 167.272 20.6667 167.939 21C168.672 21.3333 169.372 21.7 170.039 22.1H165.339L167.439 23.6H170.239L170.839 24.1H180.039L181.539 25.6H167.039C167.172 25.7333 167.306 25.9 167.439 26.1C167.572 26.3 167.706 26.4667 167.839 26.6H175.239C175.506 26.8667 175.739 27.2 175.939 27.6C176.206 27.9333 176.406 28.2667 176.539 28.6H174.939L175.839 30.6H184.739C184.872 30.8667 184.939 31.0333 184.939 31.1H170.539C170.672 31.2333 170.739 31.4 170.739 31.6C170.806 31.8 170.872 31.9667 170.939 32.1H174.239C174.239 32.1667 174.239 32.2333 174.239 32.3C174.306 32.3667 174.339 32.4667 174.339 32.6H176.039L176.639 35.6H170.839C170.839 35.6667 170.839 35.7333 170.839 35.8C170.906 35.8667 170.939 35.9667 170.939 36.1H180.539V36.6H175.539V37.1C175.606 37.4333 175.639 37.7667 175.639 38.1C175.639 38.4333 175.639 38.7667 175.639 39.1H178.239V40.6H172.039V42.1H170.939V42.6H168.239V43.1H162.739V45.1H170.939V47.1H170.739V48.1H167.139V48.6H169.339V49.6H175.939V51.1H174.739V52.1H175.539V54.1H174.939V57.1H171.639V59.1H175.439V60.6H175.939V62.6H176.839V63.1H177.639V64.6H174.539V65.6H173.939ZM144.939 32C144.472 32 144.139 32.0333 143.939 32.1H146.039C145.839 32.0333 145.472 32 144.939 32ZM145.639 49.4L144.739 49.6H145.639V49.4ZM142.239 52.1H145.039C144.306 52.6333 143.939 53.3 143.939 54.1H140.939V54.4C140.939 55.0667 141.172 55.6333 141.639 56.1C141.972 56.5667 142.639 56.9 143.639 57.1H146.039C147.039 56.9 147.906 56.5667 148.639 56.1C149.239 55.5667 149.806 54.9 150.339 54.1H150.839C150.972 53.7667 151.106 53.4667 151.239 53.2C151.372 52.8667 151.472 52.5 151.539 52.1H150.739C150.739 51.9667 150.739 51.8667 150.739 51.8C150.806 51.7333 150.839 51.6667 150.839 51.6H150.939V51.1H152.139C152.206 50.8333 152.239 50.6 152.239 50.4C152.239 50.1333 152.239 49.8667 152.239 49.6H150.539L145.639 50.7C145.372 50.7667 145.106 50.8333 144.839 50.9C144.639 50.9667 144.439 51.0333 144.239 51.1C144.039 51.1667 143.839 51.2333 143.639 51.3C143.439 51.3667 143.272 51.4667 143.139 51.6H143.039C142.906 51.6667 142.772 51.7333 142.639 51.8C142.506 51.8667 142.372 51.9667 142.239 52.1ZM142.739 57.1H140.239C140.506 57.1667 140.906 57.2 141.439 57.2C141.639 57.2 141.839 57.2 142.039 57.2C142.306 57.2 142.539 57.1667 142.739 57.1ZM271.046 47.6H269.146V48.1H270.546V49.1H266.846V49.6H269.746V51.1H268.446V52.6H269.246V53.1H268.646V54.1H269.046V55.6H269.246V56.6H268.946V57.6H268.846V59.6H269.346V61.6H268.146V63.6H267.746V64.6H269.246V66.6H267.246V68.6H269.046L268.746 69.6H270.446C270.179 70.0667 269.879 70.4 269.546 70.6H269.246C268.913 70.8667 268.446 71 267.846 71H250.246C249.646 71 249.179 70.8667 248.846 70.6H249.046C248.713 70.4 248.413 70.0667 248.146 69.6H246.346L246.046 68.6H244.246V66.6H246.246V64.6H244.746V63.6H245.146V61.6H246.346V59.6H245.846V57.6H245.946V56.6H246.246V55.6H246.046V54.1H245.646V53.1H246.246V52.6H245.446V51.1H246.746V49.6H243.846V49.1H236.846V49.6H238.146V51.1H237.946V52.6H238.846V53.1H238.346V54.1H238.146V55.6H238.046V56.6H238.146V57.6H238.546V59.6H234.346V61.6H239.846V63.6H238.246V64.6H238.146V66.6H237.546V68.6H238.146C238.146 68.8 238.113 69 238.046 69.2C237.979 69.3333 237.913 69.4667 237.846 69.6H240.046C239.913 69.8 239.746 70 239.546 70.2C239.413 70.3333 239.246 70.4667 239.046 70.6H233.246C232.913 70.8667 232.446 71 231.846 71H214.246C213.646 71 213.179 70.8667 212.846 70.6H218.646C218.179 70.4 217.846 70.0667 217.646 69.6H215.446L215.146 68.6H214.546V66.6H215.146V64.6H215.246V63.6H216.846V61.6H211.346V59.6H215.546V57.6H215.146V56.6H215.046V55.6H215.146V54.1H215.346V53.1H215.846V52.6H214.946V51.1H215.146V49.6H213.846V49.1H221.346V48.1H216.846V47.6H217.646V45.6H215.146V43.6H215.346V43.1H214.646V41.6H215.846V41.1H215.246V40.8C215.246 40.4667 215.213 40.1667 215.146 39.9C215.146 39.6333 215.113 39.3667 215.046 39.1H215.646C215.646 38.7 215.546 38.3667 215.346 38.1H214.546C214.279 37.5 213.879 37 213.346 36.6H213.846C213.313 36.1333 212.546 35.9 211.546 35.9C210.613 35.9 209.813 36.1333 209.146 36.6C208.679 37 208.279 37.5 207.946 38.1H207.646L207.346 39.1H207.946C207.879 39.3667 207.846 39.6333 207.846 39.9C207.846 40.1667 207.846 40.4667 207.846 40.8V41.1H206.446V41.6H207.346V43.1H207.146V43.6H206.746V45.6H205.246V47.6H204.946V48.1H210.546V49.1H209.046V49.6H207.146V51.1H206.946V52.6H207.646V53.1H207.446V54.1H207.246V55.1H206.846V55.6H206.546V56.6H207.346V59.6H203.746V61.6H207.446V63.6H207.046V64.6H207.746V66.6H207.446V68.3C207.446 68.3667 207.413 68.4333 207.346 68.5C207.346 68.5 207.346 68.5333 207.346 68.6H207.846L207.546 69.6H205.346C205.146 70.0667 204.813 70.4 204.346 70.6H211.546C211.213 70.8667 210.746 71 210.146 71H192.146C191.546 71 191.079 70.8667 190.746 70.6H183.546C183.213 70.4 182.913 70.0667 182.646 69.6H184.746C184.679 69.4667 184.613 69.3333 184.546 69.2C184.479 69 184.446 68.8 184.446 68.6H184.046V66.6H184.346V64.6H183.646V63.6H184.046V61.6H180.346V59.6H183.946V56.6H183.146V55.6H183.446V55.1H183.846V54.1H184.046V53.1H184.246V52.6H183.546V51.1H183.746V49.6H185.646V49.1H187.146V48.1H181.546V47.6H181.846V45.6H183.346V43.6H183.746V43.1H183.946V41.6H183.046V41.1H184.446V39.1H183.746V38.1H184.046V36.6H184.146V35.6H183.546V35.1H183.946V33.6H183.046V32.1H183.746V30.6H183.646V28.6H183.846V28.1H183.046V27.1H184.246V25.1H183.146V24.6H182.546V24.1H178.446V22.6H171.046V22.1H179.746V21.7C179.746 21.1 179.913 20.5667 180.246 20.1H185.846C185.979 19.9 186.146 19.7333 186.346 19.6H181.946C182.346 19.2 182.913 19 183.646 19H200.146C200.813 19 201.379 19.2 201.846 19.6H206.246C206.379 19.6667 206.479 19.7333 206.546 19.8C206.613 19.8667 206.679 19.9667 206.746 20.1H201.146C201.479 20.5667 201.646 21.1 201.646 21.7V22.1H192.946V22.6H200.346V24.1H204.446V24.6H205.046V25L205.346 24.6H205.246C205.313 24.4667 205.446 24.3 205.646 24.1H209.546C209.946 23.5667 210.446 23.0667 211.046 22.6H213.546L214.146 22.1H207.646C208.113 21.7667 208.579 21.4333 209.046 21.1C209.579 20.7 210.146 20.3667 210.746 20.1H211.746C211.879 19.9667 212.013 19.8667 212.146 19.8C212.346 19.7333 212.546 19.6667 212.746 19.6H217.246C218.246 19.1333 219.313 18.7667 220.446 18.5C221.579 18.2333 222.779 18.0667 224.046 18C227.913 17.8667 231.046 18.4 233.446 19.6H228.946C229.079 19.6667 229.246 19.7333 229.446 19.8C229.646 19.8667 229.813 19.9667 229.946 20.1H228.946C229.946 20.7 230.813 21.3667 231.546 22.1H242.146C242.679 21.7 243.179 21.3333 243.646 21C244.179 20.6667 244.713 20.3667 245.246 20.1H240.846L241.946 19.6H243.646C244.779 19.0667 245.946 18.6667 247.146 18.4C248.346 18.1333 249.579 18 250.846 18C253.779 18 256.413 18.5333 258.746 19.6H257.046L258.146 20.1H262.546C263.079 20.3667 263.546 20.6667 263.946 21C264.413 21.3333 264.879 21.7 265.346 22.1H252.546C252.679 22.1667 252.779 22.2333 252.846 22.3C252.913 22.3667 252.979 22.4667 253.046 22.6H268.946L270.246 24.1H254.146C254.213 24.2333 254.346 24.4 254.546 24.6H264.746C264.946 24.8 265.079 24.9667 265.146 25.1H265.646C265.846 25.3667 266.046 25.7 266.246 26.1C266.446 26.4333 266.646 26.7667 266.846 27.1H265.646C265.779 27.2333 265.879 27.4 265.946 27.6C266.013 27.8 266.079 27.9667 266.146 28.1H266.846C266.979 28.3667 267.046 28.5333 267.046 28.6H266.946C267.079 28.8667 267.213 29.2 267.346 29.6C267.479 29.9333 267.579 30.2667 267.646 30.6H267.746C267.813 30.8667 267.879 31.1333 267.946 31.4C268.013 31.6 268.079 31.8333 268.146 32.1H267.446L267.746 33.6H268.646C268.713 33.8667 268.746 34.1333 268.746 34.4C268.746 34.6 268.779 34.8333 268.846 35.1H268.546V35.6H269.146L269.246 36.6H269.446C269.513 36.8667 269.546 37.1333 269.546 37.4C269.546 37.6 269.546 37.8333 269.546 38.1H269.246V39.1H268.446V41.1H270.746V41.6H269.246V43.1H269.046V45.6H271.046V47.6ZM236.146 22.6C236.346 22.8667 236.546 23.1333 236.746 23.4C236.946 23.6 237.113 23.8333 237.246 24.1H242.946C243.213 23.8333 243.479 23.6 243.746 23.4C244.013 23.1333 244.279 22.8667 244.546 22.6H236.146ZM233.846 24.6L234.146 25.1H235.346L235.846 26.2C235.979 26 236.113 25.8333 236.246 25.7C236.379 25.5 236.513 25.3 236.646 25.1H236.146L236.646 24.6H233.846ZM247.546 48.1H246.146V47.6H248.046V45.6H246.046V43.1H246.246V41.6H247.746V41.1H245.446V40.8C245.446 40.4667 245.446 40.1667 245.446 39.9C245.446 39.6333 245.413 39.3667 245.346 39.1H246.146L245.846 38.1H246.146C245.879 37.5 245.479 37 244.946 36.6H244.746C244.213 36.1333 243.446 35.9 242.446 35.9C241.513 35.9 240.713 36.1333 240.046 36.6H239.546C239.146 36.9333 238.779 37.4333 238.446 38.1H239.346C239.146 38.3667 239.046 38.7 239.046 39.1H238.346C238.279 39.3667 238.246 39.6333 238.246 39.9C238.246 40.1667 238.246 40.4667 238.246 40.8V41.1H238.846V41.6H237.646V43.1H238.346V43.6H238.146V45.6H240.646V47.6H239.846V48.1H244.346V49.1H247.546V48.1ZM328.494 43.6V44.6H341.194V45.6H333.494V46.6H329.894V47.6H332.994V48.2C332.994 48.6 332.96 48.9 332.894 49.1H334.294C333.827 50.3 332.96 50.9 331.694 50.9H301.894V51.1H305.894V51.4C305.894 51.6667 305.894 51.9667 305.894 52.3C305.894 52.5667 305.927 52.8333 305.994 53.1H300.594C300.594 53.3 300.594 53.5 300.594 53.7C300.66 53.8333 300.694 53.9667 300.694 54.1H300.094C300.094 54.3667 300.16 54.7 300.294 55.1H300.694C301.027 56.0333 301.56 56.7 302.294 57.1H299.594C300.06 57.3667 300.694 57.5 301.494 57.5C302.027 57.5 302.46 57.3667 302.794 57.1H307.494C307.76 56.9667 307.994 56.7667 308.194 56.5C308.46 56.2333 308.76 55.9667 309.094 55.7L309.694 55.1H307.794C308.394 54.5667 309.294 54.3 310.494 54.3H329.394C330.194 54.3 330.794 54.5667 331.194 55.1H332.994C333.327 55.5667 333.494 56.0333 333.494 56.5C333.427 56.6333 333.394 56.8333 333.394 57.1H328.694C328.56 57.7667 328.36 58.4333 328.094 59.1H323.194C322.994 59.4333 322.827 59.7667 322.694 60.1H335.094C334.96 60.4333 334.76 60.7667 334.494 61.1C334.294 61.4333 334.06 61.7667 333.794 62.1H330.794C330.527 62.5 330.26 62.8333 329.994 63.1H330.694C330.627 63.1667 330.56 63.2333 330.494 63.3C330.427 63.3667 330.36 63.4667 330.294 63.6H324.694L324.194 64.1H325.894C325.827 64.1667 325.727 64.2333 325.594 64.3C325.527 64.3667 325.46 64.4667 325.394 64.6H328.494C328.027 65.0667 327.427 65.5667 326.694 66.1H325.194C325.127 66.1667 325.027 66.2333 324.894 66.3C324.76 66.3667 324.627 66.4667 324.494 66.6H323.394C322.327 67.3333 321.16 68 319.894 68.6H318.594C317.794 69 316.927 69.3667 315.994 69.7C315.127 70.0333 314.194 70.3333 313.194 70.6H311.594C310.86 70.8 310.094 70.9667 309.294 71.1C308.494 71.3 307.627 71.4667 306.694 71.6H310.894C309.96 71.7333 308.994 71.8333 307.994 71.9C306.994 71.9667 305.927 72 304.794 72C303.727 72 302.66 71.9667 301.594 71.9C300.527 71.8333 299.494 71.7333 298.494 71.6H294.294C293.427 71.4667 292.594 71.3 291.794 71.1C290.994 70.9667 290.194 70.8 289.394 70.6H290.994C289.194 70.1333 287.494 69.4667 285.894 68.6H287.194C285.994 67.9333 284.96 67.2667 284.094 66.6H285.194C285.06 66.4667 284.927 66.3667 284.794 66.3C284.727 66.2333 284.627 66.1667 284.494 66.1H285.994C285.727 65.8333 285.46 65.6 285.194 65.4C284.927 65.1333 284.66 64.8667 284.394 64.6H281.194L280.694 64.1H278.994C278.927 63.9667 278.86 63.8667 278.794 63.8C278.727 63.7333 278.66 63.6667 278.594 63.6H284.094C284.027 63.4667 283.894 63.3 283.694 63.1H282.994C282.86 62.9667 282.727 62.8 282.594 62.6C282.46 62.4 282.327 62.2333 282.194 62.1H285.194C284.994 61.7667 284.794 61.4333 284.594 61.1C284.394 60.7667 284.194 60.4333 283.994 60.1H271.494C271.294 59.7667 271.127 59.4333 270.994 59.1H275.894L274.994 57.1H277.694C277.56 56.7667 277.427 56.4333 277.294 56.1C277.227 55.7667 277.127 55.4333 276.994 55.1H276.694L276.394 54.1H277.094L276.794 53.1H282.194C282.127 52.7667 282.06 52.4333 281.994 52.1C281.927 51.7667 281.86 51.4333 281.794 51.1H277.794L277.594 49.1H276.194C276.194 48.8333 276.16 48.6 276.094 48.4C276.094 48.1333 276.094 47.8667 276.094 47.6H272.994V46.6H276.494V45.6H284.194V44.6H271.494V44.4C271.494 44.0667 271.527 43.8 271.594 43.6H288.894C288.894 43.3333 288.894 43.1 288.894 42.9C288.96 42.6333 288.994 42.3667 288.994 42.1H273.094C273.094 41.9667 273.094 41.8667 273.094 41.8C273.16 41.7333 273.194 41.6667 273.194 41.6H279.794C279.794 41.4 279.827 41.2333 279.894 41.1H287.294V40.6H273.194C273.26 40.2667 273.327 39.9333 273.394 39.6C273.46 39.2667 273.527 38.9333 273.594 38.6H277.394C277.394 38.3333 277.46 38 277.594 37.6H274.294C274.294 37.4667 274.294 37.3667 274.294 37.3C274.36 37.2333 274.394 37.1667 274.394 37.1H276.794C276.794 36.9667 276.794 36.8667 276.794 36.8C276.86 36.7333 276.894 36.6667 276.894 36.6H274.394L274.594 36.1H276.994L277.294 35.1H279.194L279.794 33.6H277.994C278.127 33.2667 278.26 32.9333 278.394 32.6C278.527 32.2 278.694 31.8667 278.894 31.6H278.594L278.794 31.1H276.294C276.427 30.8333 276.494 30.6667 276.494 30.6H274.194L274.794 29.6H279.694C279.76 29.4667 279.894 29.3 280.094 29.1H281.894C282.16 28.7667 282.394 28.4333 282.594 28.1C282.86 27.7 283.127 27.3667 283.394 27.1H281.594C281.794 26.8333 281.994 26.6 282.194 26.4C282.46 26.1333 282.727 25.8667 282.994 25.6H286.894L287.894 24.6H281.994C282.86 23.8667 283.727 23.2 284.594 22.6H290.094L290.894 22.1H289.094C289.627 21.7667 290.26 21.4333 290.994 21.1H294.894C296.694 20.2333 298.56 19.5667 300.494 19.1H294.894C296.36 18.7667 297.894 18.5 299.494 18.3C301.094 18.1 302.76 18 304.494 18C306.227 18 307.86 18.1 309.394 18.3C310.927 18.5 312.394 18.7667 313.794 19.1H319.294C320.294 19.3667 321.227 19.6667 322.094 20C323.027 20.3333 323.927 20.7 324.794 21.1H320.894C321.227 21.2333 321.527 21.4 321.794 21.6C322.127 21.7333 322.427 21.9 322.694 22.1H324.494C324.627 22.1667 324.76 22.2333 324.894 22.3C325.027 22.3667 325.16 22.4667 325.294 22.6H319.794C320.66 23.2 321.527 23.8667 322.394 24.6H328.394L329.394 25.6H325.494C325.76 25.8667 325.994 26.1333 326.194 26.4C326.46 26.6 326.694 26.8333 326.894 27.1H328.694C328.96 27.3667 329.194 27.7 329.394 28.1C329.66 28.4333 329.927 28.7667 330.194 29.1H328.294C328.36 29.2333 328.494 29.4 328.694 29.6H323.694L324.294 30.6H326.594L326.894 31.1H329.494C329.494 31.1667 329.56 31.3333 329.694 31.6H329.994L330.894 33.6L331.494 35.1H331.594L331.894 36.1H330.694L330.894 36.6H331.794L331.994 37.1H333.594C333.594 37.1667 333.594 37.2333 333.594 37.3C333.66 37.3667 333.694 37.4667 333.694 37.6H332.894L333.194 38.6H329.394L329.694 40.6H343.794V41.1H336.394C336.394 41.1667 336.394 41.2333 336.394 41.3C336.46 41.3667 336.494 41.4667 336.494 41.6H329.794C329.86 41.7333 329.894 41.9 329.894 42.1H345.794C345.794 42.3667 345.794 42.6333 345.794 42.9C345.794 43.1 345.827 43.3333 345.894 43.6H328.494ZM298.094 37.1V37.6H301.294V38.4H309.294V37.6H309.994V37.1H308.394V36.6H307.394C307.394 36.4 307.36 36.2333 307.294 36.1H308.494C308.494 35.8333 308.427 35.5 308.294 35.1H308.194C308.127 34.5 307.927 34 307.594 33.6C306.927 32.5333 305.894 32 304.494 32C303.16 32 302.16 32.5333 301.494 33.6H303.294C303.027 34 302.827 34.5 302.694 35.1H300.694C300.694 35.2333 300.66 35.4 300.594 35.6C300.594 35.7333 300.56 35.9 300.494 36.1H298.094C298.094 36.3 298.06 36.4667 297.994 36.6H300.494V37.1H298.094ZM377.898 39.1H375.198V41.1H377.698V42.6H378.998V43.1H371.598V45.1H377.898V47.1H379.598V47.6H377.398V48.1C377.398 48.6333 377.232 49.1333 376.898 49.6H371.898C371.765 49.8667 371.632 50.0333 371.498 50.1H376.498C376.365 50.1667 376.232 50.2667 376.098 50.4C375.965 50.4667 375.832 50.5333 375.698 50.6H381.798C381.398 50.7333 381.065 50.8 380.798 50.8H348.298C348.032 50.8 347.698 50.7333 347.298 50.6H341.098C340.832 50.4667 340.565 50.3 340.298 50.1H335.398C335.198 49.9667 335.032 49.8 334.898 49.6H339.898C339.832 49.4 339.732 49.1667 339.598 48.9C339.532 48.6333 339.498 48.3667 339.498 48.1V47.6H341.698V47.1H339.998V45.1H333.698V43.1H341.098V42.6H339.798V41.1H337.298V39.1H339.998V38.1H344.998V37.6H337.698V36.6H344.898V34.6H334.698V33.6H335.898C336.032 32.6667 336.465 32 337.198 31.6H340.598C340.932 31.3333 341.398 31.2 341.998 31.2H374.498C375.098 31.2 375.565 31.3333 375.898 31.6H372.498C373.232 32 373.665 32.6667 373.798 33.6H372.598V34.6H382.798V36.6H375.598V37.6H382.898V38.1H377.898V39.1ZM420.469 32.1H412.269V32.6H412.869V34.6H415.469V35.6H408.769V37.1H410.369V37.6H410.469V39.1H410.969V39.6H409.869V40.1H411.069V40.6H410.269V41.6H409.669V43.1H410.169V43.6H410.569V44.1H407.869V45.1H406.769V45.6H405.869V47.1H408.169V47.6H406.469V48.6H411.569V50.6H406.869V52.6H411.069V54.6H410.369V55.1H411.369V57.1H407.869V58.1H414.669V60.1H408.769V60.6H411.469V62.1H410.169V64.1H409.769V66.1H410.269V67.6H409.169V68.3C409.169 68.6333 409.135 68.9 409.069 69.1H411.769C411.502 69.8333 411.102 70.3333 410.569 70.6H407.269C406.935 70.8667 406.469 71 405.869 71H387.969C387.369 71 386.902 70.8667 386.569 70.6H389.869C389.335 70.3333 388.935 69.8333 388.669 69.1H385.969C385.902 68.9 385.869 68.6333 385.869 68.3V67.6H386.969V66.1H386.469V64.1H386.869V62.1H388.169V60.6H385.469V60.1H391.369V58.1H384.569V57.1H388.069V55.1H387.069V54.6H387.769V52.6H383.569V50.6H388.269V48.6H383.169V47.6H384.869V47.1H382.569V45.6H383.469V45.1H384.569V44.1H387.269V43.6H386.869V43.1H386.369V41.6H386.969V40.6H387.769V40.1H386.569V39.6H387.669V39.1H387.169V37.6H387.069V37.1H385.469V35.6H392.169V34.6H389.569V32.6H388.969V32.1H397.169V31.6H388.469V30.1H393.569V28.6H389.469V28.1H385.469V26.1H388.269V25.6H386.969V25.1H385.569V23.6H386.069V23.1H387.669V21.1H386.969V20.1H388.369V16.6H392.569V16.1H389.769V14.6H385.969V14.1H385.769V13.1H386.669V12.1H386.869V11.6H386.969V10.1H386.769V9.6H386.969V9.1H387.269V7.6H386.569V6.1H387.269V5.6H387.069V3.6H386.969V3.1H386.869V2.7C386.869 2.36666 386.935 2 387.069 1.6H387.169C387.635 0.533331 388.469 -3.8147e-06 389.669 -3.8147e-06H407.569C408.635 -3.8147e-06 409.469 0.533331 410.069 1.6H409.969C410.102 2 410.169 2.36666 410.169 2.7V3.1H410.269V3.6H410.369V5.6H410.569V6.1H409.869V7.6H410.569V9.1H410.269V9.6H410.069V10.1H410.269V11.6H410.169V12.1H409.969V13.1H409.069V14.1H409.269V14.6H413.069V16.1H415.869V16.6H411.669V20.1H410.269V21.1H410.969V23.1H409.369V23.6H408.869V25.1H410.269V25.6H411.569V26.1H408.769V28.1H412.769V28.6H416.869V30.1H411.769V31.6H420.469V32.1ZM484.193 42.1C484.26 42.4333 484.293 42.7667 484.293 43.1C484.293 43.4333 484.293 43.7667 484.293 44.1H477.193V45.1H473.093V46.1H476.993V46.6H472.493V48.1H469.993V48.6H475.593C475.593 48.8 475.56 48.9667 475.493 49.1H475.193V49.6H476.093V49.7C476.093 49.9667 476.06 50.2667 475.993 50.6C475.993 50.9333 475.96 51.2667 475.893 51.6H475.193L474.893 53.6H476.393C476.393 53.8667 476.326 54.2 476.193 54.6H475.893C475.826 54.8667 475.76 55.1333 475.693 55.4C475.626 55.6 475.56 55.8333 475.493 56.1H476.293C476.226 56.4333 476.126 56.7667 475.993 57.1C475.86 57.4333 475.726 57.7667 475.593 58.1H474.093L473.693 59.1H473.893C473.76 59.3667 473.693 59.5333 473.693 59.6H473.293C473.026 60.2667 472.66 60.9333 472.193 61.6H472.393C472.326 61.7333 472.226 61.9 472.093 62.1C471.96 62.3 471.826 62.4667 471.693 62.6H471.593L470.393 64.1C470.326 64.1667 470.26 64.2333 470.193 64.3C470.126 64.3667 470.026 64.4667 469.893 64.6H469.393C469.126 64.8667 468.86 65.1333 468.593 65.4C468.326 65.6 468.026 65.8333 467.693 66.1H464.693L462.593 67.6H462.993C462.86 67.6667 462.726 67.7333 462.593 67.8C462.46 67.8667 462.326 67.9667 462.193 68.1H461.493C461.36 68.1667 461.193 68.2333 460.993 68.3C460.793 68.3667 460.626 68.4667 460.493 68.6H465.893C465.56 68.8 465.193 69 464.793 69.2C464.393 69.3333 463.993 69.4667 463.593 69.6H461.893C461.426 69.8 460.926 70 460.393 70.2C459.86 70.3333 459.326 70.4667 458.793 70.6H459.193C458.393 70.8 457.56 70.9667 456.693 71.1C455.826 71.3 454.926 71.4667 453.993 71.6H457.093C456.026 71.7333 454.926 71.8333 453.793 71.9C452.66 71.9667 451.493 72 450.293 72C449.026 72 447.826 71.9667 446.693 71.9C445.626 71.8333 444.526 71.7333 443.393 71.6H440.193C439.326 71.4667 438.426 71.3 437.493 71.1C436.626 70.9667 435.793 70.8 434.993 70.6H434.693C434.16 70.4667 433.626 70.3333 433.093 70.2C432.626 70 432.126 69.8 431.593 69.6H433.193C432.86 69.4667 432.493 69.3333 432.093 69.2C431.693 69 431.326 68.8 430.993 68.6H425.593L424.693 68.1H425.393L424.493 67.6H424.093C423.293 67.0667 422.593 66.5667 421.993 66.1H424.993C424.726 65.8333 424.46 65.6 424.193 65.4C423.926 65.1333 423.66 64.8667 423.393 64.6H423.893C423.826 64.4667 423.76 64.3667 423.693 64.3C423.626 64.2333 423.526 64.1667 423.393 64.1L422.193 62.6H422.293L421.593 61.6H421.393C420.926 60.9333 420.56 60.2667 420.293 59.6H420.593C420.46 59.3333 420.393 59.1667 420.393 59.1H420.093L419.693 58.1H421.193C421.126 57.7667 421.026 57.4333 420.893 57.1C420.76 56.7667 420.626 56.4333 420.493 56.1H419.693C419.626 55.8333 419.56 55.6 419.493 55.4C419.426 55.1333 419.36 54.8667 419.293 54.6H418.693L418.393 53.6H417.393L417.093 51.6H418.093C418.026 51.2667 417.96 50.9333 417.893 50.6C417.893 50.2667 417.893 49.9667 417.893 49.7V49.6H416.093V49.1H415.593C415.593 48.9667 415.56 48.8667 415.493 48.8C415.493 48.7333 415.493 48.6667 415.493 48.6H421.093C421.093 48.4 421.06 48.2333 420.993 48.1H415.393V46.6H417.793V46.1H418.993V45.1H421.093V44.1H414.993C414.993 43.7667 414.993 43.4333 414.993 43.1C414.993 42.7667 415.026 42.4333 415.093 42.1H413.793V41.1H423.693C423.76 40.9 423.793 40.6333 423.793 40.3V39.6H421.093C421.093 39.3333 421.093 39.1 421.093 38.9C421.16 38.6333 421.193 38.3667 421.193 38.1H422.193L422.493 36.1H419.193C419.26 35.8333 419.326 35.6 419.393 35.4C419.46 35.1333 419.526 34.8667 419.593 34.6H418.893C419.026 34.2667 419.126 33.9333 419.193 33.6C419.326 33.2 419.46 32.8667 419.593 32.6H419.693C419.76 32.4667 419.826 32.3 419.893 32.1C419.96 31.9 420.026 31.7333 420.093 31.6H419.993C419.993 31.5333 420.06 31.3667 420.193 31.1H420.693C420.96 30.4333 421.326 29.7667 421.793 29.1H419.793L420.393 28.1H424.093C424.16 27.9667 424.293 27.8 424.493 27.6H417.193C417.326 27.3333 417.493 27.1 417.693 26.9C417.96 26.6333 418.193 26.3667 418.393 26.1H420.693C421.026 25.7667 421.36 25.4333 421.693 25.1C422.093 24.7 422.46 24.3667 422.793 24.1H427.393C427.993 23.5667 428.693 23.0667 429.493 22.6H431.393C431.66 22.4 431.926 22.2333 432.193 22.1C432.526 21.9 432.826 21.7333 433.093 21.6H427.193C427.793 21.2667 428.526 20.9333 429.393 20.6H432.093C433.626 20 435.226 19.5 436.893 19.1H433.893C437.16 18.3667 440.626 18 444.293 18C447.96 18 451.426 18.3667 454.693 19.1H457.793C459.46 19.5 461.026 20 462.493 20.6H459.693C460.56 20.9333 461.293 21.2667 461.893 21.6H467.793C468.126 21.7333 468.426 21.9 468.693 22.1C469.026 22.2333 469.326 22.4 469.593 22.6H467.693L469.793 24.1H465.193C465.593 24.3667 465.96 24.7 466.293 25.1C466.693 25.4333 467.06 25.7667 467.393 26.1H465.093C465.293 26.3667 465.493 26.6333 465.693 26.9C465.96 27.1 466.16 27.3333 466.293 27.6H473.693L473.993 28.1H470.393L470.993 29.1H472.993C473.46 29.7667 473.826 30.4333 474.093 31.1H473.593C473.726 31.3667 473.793 31.5333 473.793 31.6H473.993L474.393 32.6H474.293C474.426 32.8667 474.56 33.2 474.693 33.6C474.826 33.9333 474.926 34.2667 474.993 34.6H475.993L476.293 36.1H475.693C475.826 36.3667 475.893 36.7 475.893 37.1C475.96 37.4333 476.026 37.7667 476.093 38.1H476.893C476.96 38.3667 476.993 38.6333 476.993 38.9C476.993 39.1 477.026 39.3333 477.093 39.6H473.193V40.3C473.193 40.6333 473.226 40.9 473.293 41.1H471.293V42.1H484.193ZM445.793 38.1C445.726 38.3667 445.66 38.6333 445.593 38.9C445.593 39.1 445.593 39.3333 445.593 39.6H448.393C448.326 39.8 448.293 40 448.293 40.2C448.293 40.4 448.293 40.6 448.293 40.8V41.1H448.693V40.8C448.693 40.6 448.66 40.4 448.593 40.2C448.593 40 448.593 39.8 448.593 39.6H452.493C452.493 39.3333 452.46 39.1 452.393 38.9C452.393 38.6333 452.393 38.3667 452.393 38.1H451.593C451.526 37.7 451.426 37.3333 451.293 37C451.226 36.6667 451.126 36.3667 450.993 36.1H451.693C451.426 35.5 451.026 35 450.493 34.6H449.493C448.826 34.2 447.96 34 446.893 34C445.826 34 444.993 34.2 444.393 34.6H445.093C444.826 34.8 444.593 35.0333 444.393 35.3C444.193 35.5 444.026 35.7667 443.893 36.1H447.193C447.126 36.3667 447.026 36.6667 446.893 37C446.826 37.3333 446.76 37.7 446.693 38.1H445.793ZM452.593 44.1H459.693V42.1H446.793C446.726 41.8333 446.693 41.5 446.693 41.1H438.393C438.393 41.5 438.36 41.8333 438.293 42.1H439.593V44.1H445.693V45.1H443.493V46.1H442.293V46.6H439.893C439.893 46.8667 439.893 47.1333 439.893 47.4C439.96 47.6 439.993 47.8333 439.993 48.1H447.893V46.6H452.393V46.1H448.493V45.1H452.593V44.1ZM450.993 49.1V48.6H440.093V49.1H440.593V49.2C440.593 49.2667 440.593 49.3333 440.593 49.4C440.66 49.4667 440.693 49.5333 440.693 49.6H442.393C442.46 49.9333 442.493 50.2667 442.493 50.6C442.493 50.9333 442.526 51.2667 442.593 51.6H441.593C441.726 52.4667 441.86 53.1333 441.993 53.6H443.093C443.226 54 443.36 54.3333 443.493 54.6H444.193C444.793 55.5333 445.926 56 447.593 56C449.26 56 450.393 55.5333 450.993 54.6H451.393C451.46 54.4667 451.526 54.3333 451.593 54.2C451.66 54 451.726 53.8 451.793 53.6H450.293C450.36 53.2667 450.426 52.9667 450.493 52.7C450.56 52.3667 450.626 52 450.693 51.6H451.393C451.46 51.2667 451.493 50.9333 451.493 50.6C451.493 50.2667 451.526 49.9333 451.593 49.6H450.693V49.1H450.993ZM539.553 55.1H535.553V56.1H535.853V57.1H548.353V59.1H543.453V60.1H536.653V61.6H547.253V62.6H541.353V63.1H540.553V65.1H537.053V66.1H540.253V67.1H537.353V68.3C537.353 68.4333 537.32 68.5667 537.253 68.7C537.253 68.8333 537.253 68.9667 537.253 69.1H539.653C539.653 69.1667 539.586 69.3333 539.453 69.6H540.253C539.786 70.5333 539.02 71 537.953 71H520.953C519.953 71 519.153 70.5333 518.553 69.6H517.753L517.453 69.1H515.053C514.986 68.9667 514.953 68.8 514.953 68.6L514.153 69.1H515.053L514.253 69.6H517.353C516.286 70.2 515.086 70.7 513.753 71.1H513.253C512.92 71.1667 512.553 71.2333 512.153 71.3C511.82 71.4333 511.486 71.5333 511.153 71.6H510.653C509.92 71.7333 509.153 71.8333 508.353 71.9C507.62 71.9667 506.853 72 506.053 72C505.186 72 504.353 71.9667 503.553 71.9C502.753 71.8333 501.986 71.7333 501.253 71.6H501.753C501.42 71.5333 501.053 71.4333 500.653 71.3C500.253 71.2333 499.886 71.1667 499.553 71.1H500.053C498.653 70.7 497.386 70.2 496.253 69.6H493.153L492.253 69.1H491.353C490.886 68.7667 490.42 68.4667 489.953 68.2C489.553 67.8667 489.153 67.5 488.753 67.1H491.753L490.753 66.1H484.553L483.653 65.1H487.253C486.72 64.4333 486.253 63.7667 485.853 63.1H486.653L486.353 62.6H492.153C492.02 62.2667 491.853 61.9333 491.653 61.6H481.053L480.453 60.1H487.153L486.853 59.1H491.753L491.153 57.1H478.653L478.353 56.1H478.153C478.02 55.7 477.953 55.3667 477.953 55.1H481.853C481.786 54.7667 481.72 54.4333 481.653 54.1C481.586 53.7667 481.52 53.4333 481.453 53.1H487.453C487.386 52.9667 487.353 52.8 487.353 52.6C487.353 52.4 487.353 52.2333 487.353 52.1H484.253C484.253 51.8333 484.22 51.6 484.153 51.4C484.153 51.1333 484.153 50.8667 484.153 50.6H482.153C482.153 50.3333 482.153 50.1 482.153 49.9C482.153 49.6333 482.12 49.3667 482.053 49.1H481.853V48.6C481.853 48.3333 481.82 48.1 481.753 47.9C481.753 47.6333 481.753 47.3667 481.753 47.1H480.253C480.186 46.8333 480.153 46.6 480.153 46.4C480.153 46.1333 480.153 45.8667 480.153 45.6H482.053V43.6H482.553V43.1H482.753V41.1H484.853V41C484.853 40.6667 484.853 40.3333 484.853 40C484.853 39.6667 484.886 39.3667 484.953 39.1H479.553C479.62 38.8333 479.653 38.6 479.653 38.4C479.653 38.1333 479.686 37.8667 479.753 37.6H483.953V37.1H484.153C484.22 36.9667 484.253 36.8 484.253 36.6C484.253 36.4 484.286 36.2333 484.353 36.1H484.653L484.953 34.6H482.753L482.953 34.1H482.653C482.72 33.8333 482.786 33.6 482.853 33.4C482.92 33.1333 482.986 32.8667 483.053 32.6H483.653C483.786 32.2667 483.886 31.9333 483.953 31.6C484.086 31.2 484.22 30.8667 484.353 30.6H484.153L484.353 30.1C484.486 29.7667 484.62 29.4333 484.753 29.1C484.953 28.7 485.153 28.3667 485.353 28.1L486.253 26.6H485.253L485.953 25.6H484.653C484.92 25.3333 485.186 25 485.453 24.6H488.953C489.086 24.4667 489.22 24.3 489.353 24.1C489.553 23.9 489.753 23.7333 489.953 23.6H486.453C486.92 23.1333 487.286 22.8 487.553 22.6H490.653C491.386 22 492.086 21.5 492.753 21.1H491.653C492.986 20.3 494.42 19.6333 495.953 19.1H494.453C496.853 18.3667 499.286 18 501.753 18C504.286 18 506.653 18.3667 508.853 19.1H510.353C511.82 19.5667 513.186 20.2333 514.453 21.1H519.753V19.1H517.553V17.1H520.553V15.6H520.453V13.6H516.053V12.6H516.953V11.6H517.653V11.1H517.053V10.6H516.753V10.1H516.653V9.6H516.353V9.1H516.153V7.09999H514.053V5.1H516.353V4.6H516.653V2.6C516.653 2.33333 516.72 2 516.853 1.6H517.853C518.32 0.533331 519.153 -3.8147e-06 520.353 -3.8147e-06H538.853C540.053 -3.8147e-06 540.886 0.533331 541.353 1.6H540.253C540.453 1.86666 540.553 2.23333 540.553 2.7V4.6H540.253V5.1H537.953V7.09999H540.053V9.1H540.253V9.6H540.553V10.1H540.653V10.6H540.953V11.1H541.553V11.6H540.853V12.6H539.953V13.6H544.353V15.6H544.453V17.1H541.453V19.1H543.653V21.1H538.853V22.6H538.353V23.6H541.853V24.6H538.353V25.6H539.553V26.6H540.653V28.1H540.553V30.6H540.753V32.6H540.153V34.1H540.353V34.6H542.553V36.1H544.953V37.1H542.153V37.6H540.353V39.1H542.253V41.1H536.153V43.1H536.853V43.6H539.853V44.1H540.753V45.6H539.753V47.1H541.153V48.6H541.253V49.1H540.153V50.6H540.953V52.1H549.453V53.1H539.553V55.1ZM512.553 52.1C512.686 52.3 512.82 52.5 512.953 52.7C513.086 52.8333 513.22 52.9667 513.353 53.1H507.353C508.153 53.7667 509.253 54.1 510.653 54.1C511.986 54.1 513.086 53.7667 513.953 53.1H523.853C523.986 52.9667 524.12 52.8333 524.253 52.7C524.453 52.5 524.586 52.3 524.653 52.1H516.153C516.353 51.7 516.553 51.2 516.753 50.6H515.953C516.02 50.3333 516.053 50.1 516.053 49.9C516.12 49.6333 516.153 49.3667 516.153 49.1H517.353V48.6H517.253V48.3C517.253 48.1 517.253 47.9 517.253 47.7C517.253 47.5 517.286 47.3 517.353 47.1H515.953V45.6H516.953V44.1H516.153V43.6H513.053V43.1H512.453C512.386 42.7667 512.353 42.4333 512.353 42.1C512.353 41.7667 512.32 41.4333 512.253 41.1H518.353V40.9C518.286 40.1667 518.186 39.5667 518.053 39.1H516.153C515.953 38.4333 515.72 37.9333 515.453 37.6H517.253C517.186 37.4667 517.053 37.3 516.853 37.1H519.653C519.186 36.6333 518.586 36.3 517.853 36.1H515.453C515.186 36.0333 514.886 36 514.553 36C514.286 35.9333 513.986 35.9 513.653 35.9C513.32 35.9 513.02 35.9333 512.753 36C512.486 36 512.22 36.0333 511.953 36.1H511.653C510.92 36.3 510.32 36.6333 509.853 37.1H509.653C509.586 37.2333 509.453 37.4 509.253 37.6H505.153C504.886 37.9333 504.653 38.4333 504.453 39.1H509.753C509.686 39.3667 509.62 39.7 509.553 40.1C509.486 40.4333 509.42 40.7667 509.353 41.1H507.353V41.7C507.286 41.9 507.253 42.1333 507.253 42.4C507.253 42.6 507.22 42.8333 507.153 43.1H506.953V43.6H506.553V44.1C506.486 44.5667 506.486 45.0667 506.553 45.6H504.653V47.1H506.253C506.253 47.3 506.253 47.5 506.253 47.7C506.253 47.9 506.286 48.1 506.353 48.3V48.6C506.42 48.7333 506.453 48.9 506.453 49.1H506.653L506.953 50.6H508.953C509.086 51.2 509.286 51.7 509.553 52.1H512.553ZM610.166 23.1H602.066L601.866 23.6H610.266L609.366 25.6H605.466L604.666 27.6H606.766L605.966 29.6H602.666L602.266 30.6H604.766L604.366 31.6H603.766L603.566 32.1H603.466L602.766 33.6H603.766L603.166 35.1H596.066L595.566 36.1H601.066L600.866 36.6H591.866L591.466 37.6H590.666L589.766 39.6H602.966L602.766 40.1H600.466L599.966 41.1H600.666L600.466 41.6H599.866L598.966 43.6L598.366 45.1H597.166L596.466 46.6H597.266L596.566 48.1H596.866L596.666 48.6H596.566L596.166 49.6H596.666L596.266 50.6H595.766L595.366 51.6H595.266L594.666 53.1H595.266L595.066 53.6H594.466L593.766 55.1H590.066L589.166 57.1H591.566L591.166 58.1H594.066L593.266 60.1H589.966L589.566 61.1H591.166L590.366 63.1H589.866L588.966 65.1H589.666L589.266 66.1H589.066L588.566 67.1H588.366L587.666 68.6H587.966L587.266 70.1H586.466L585.766 71.6H584.366L583.866 72.6H591.166L590.366 74.6H582.966L582.066 76.6H586.166L585.266 78.6H589.366L588.466 80.6H588.666L587.866 82.6H575.266L574.766 83.6H577.666L577.266 84.6H581.666L581.166 85.6H571.166L570.666 86.6H575.866L575.466 87.6C575.133 88.4667 574.566 89.1333 573.766 89.6H569.566C569.033 89.8667 568.466 90 567.866 90H551.466C550.866 90 550.433 89.8667 550.166 89.6H554.266C553.666 89.1333 553.366 88.5667 553.366 87.9V87.6C553.366 87.3333 553.4 87.1 553.466 86.9L553.566 86.6H548.366L548.866 85.6H558.866L559.266 84.6H554.866L555.266 83.6H552.466L552.866 82.6H565.466L566.366 80.6H566.166L566.966 78.6H562.866L563.666 76.6H559.666L560.466 74.6H567.866L568.666 72.6H561.366L561.766 71.6H563.266L563.866 70.1H564.766L565.366 68.6H565.166L565.566 67.7L565.266 67.1H565.466L565.066 66.1H565.366L564.866 65.1H564.166L563.366 63.1H563.866L562.966 61.1H561.366L560.866 60.1H564.166L563.366 58.1H560.366L559.966 57.1H557.566L556.766 55.1H560.466L559.866 53.6H560.466L560.266 53.1H559.566L558.966 51.6H559.066L558.666 50.6H559.066L558.666 49.6H558.066L557.666 48.6H557.766L557.566 48.1H557.266L556.666 46.6H555.966L555.266 45.1H556.466L555.866 43.6H554.466L553.666 41.6H554.766L554.466 41.1H556.066L555.566 40.1H553.066L552.766 39.6H552.666L551.766 37.6H539.266L538.766 36.6H546.266L546.066 36.1H546.466L545.966 35.1H550.966L550.266 33.6H551.166L550.566 32.1H550.766L550.566 31.6H550.466L550.066 30.6H549.766L549.266 29.6H550.266L549.466 27.6H546.766L545.866 25.6H547.966L547.166 23.6H541.766L541.566 23.1H549.466L549.066 22.1C549 21.9 548.966 21.6667 548.966 21.4C548.966 21.2667 549 21.1667 549.066 21.1H550.466C550.8 19.7 551.6 19 552.866 19H569.766C570.7 19 571.4 19.2333 571.866 19.7C572.333 20.1 572.666 20.5667 572.866 21.1H571.466C571.466 21.1667 571.466 21.2333 571.466 21.3C571.533 21.3 571.566 21.3333 571.566 21.4L571.866 22.1L572.166 23.1H564.166L564.366 23.6H569.766L570.566 25.6H568.466L569.166 27.6H571.866L572.566 29.6H571.566L571.966 30.6H572.266L572.866 32.1H572.666L573.166 33.6H572.366L572.866 35.1H567.966L568.266 36.1H567.866L568.066 36.6H560.666L560.966 37.6H569.766L570.166 36.6H579.166L579.366 36.1H573.866L574.266 35.1H581.266L581.866 33.6H580.866L581.466 32.1H581.566L581.766 31.6H582.366L582.666 30.6H580.166L580.566 29.6H583.766L584.566 27.6H582.366L583.166 25.6H587.066L587.766 23.6H579.366L579.566 23.1H587.666L588.066 22.1L588.266 21.4C588.333 21.3333 588.366 21.2333 588.366 21.1H585.066C585.4 20.5667 585.8 20.1 586.266 19.7C586.8 19.2333 587.5 19 588.366 19H605.066C605.666 19 606.2 19.2333 606.666 19.7C607.133 20.1 607.366 20.5667 607.366 21.1H610.666C610.666 21.5 610.633 21.8333 610.566 22.1L610.166 23.1ZM581.266 40.1L581.366 39.6H574.466L574.666 40.1H577.166L577.566 41.1H576.066L576.266 41.6H575.166L575.866 43.6H577.266L577.466 44.2L577.666 43.6L578.366 41.6H579.066L579.266 41.1H578.566L578.866 40.1H581.266Z" fill="white"/>
</svg>
