<svg width="29" height="29" viewBox="0 0 29 29" fill="none" xmlns="http://www.w3.org/2000/svg">
<path fill-rule="evenodd" clip-rule="evenodd" d="M11.6005 0H11.6752C11.9406 0 12.1951 0.105493 12.3828 0.293271C12.5705 0.481049 12.6759 0.735731 12.6759 1.00129C12.6759 1.26685 12.5705 1.52153 12.3828 1.70931C12.1951 1.89709 11.9406 2.00258 11.6752 2.00258C9.13065 2.00258 7.324 2.00525 5.951 2.18949C4.61002 2.36972 3.83613 2.70882 3.27172 3.27355C2.70731 3.83828 2.36839 4.61261 2.18826 5.95567C2.00413 7.3281 2.00146 9.13576 2.00146 11.6817C2.00146 11.9473 1.89602 12.2019 1.70835 12.3897C1.52068 12.5775 1.26614 12.683 1.00073 12.683C0.735319 12.683 0.48078 12.5775 0.293107 12.3897C0.105434 12.2019 0 11.9473 0 11.6817V11.6069C0 9.15312 0 7.20928 0.204149 5.68866C0.414969 4.12398 0.857958 2.85701 1.85602 1.85706C2.85541 0.858439 4.12167 0.415201 5.68548 0.204263C7.20658 0 9.148 0 11.6005 0ZM22.7352 2.18949C21.3649 2.00525 19.5569 2.00258 17.0124 2.00258C16.747 2.00258 16.4924 1.89709 16.3048 1.70931C16.1171 1.52153 16.0117 1.26685 16.0117 1.00129C16.0117 0.735731 16.1171 0.481049 16.3048 0.293271C16.4924 0.105493 16.747 3.95713e-09 17.0124 0H17.0871C19.5396 0 21.4823 0 23.0021 0.204263C24.5659 0.415201 25.8321 0.858439 26.8315 1.85706C27.8296 2.85701 28.2726 4.12398 28.4834 5.68866C28.6876 7.21062 28.6876 9.15312 28.6876 11.6069V11.6817C28.6876 11.9473 28.5821 12.2019 28.3945 12.3897C28.2068 12.5775 27.9522 12.683 27.6868 12.683C27.4214 12.683 27.1669 12.5775 26.9792 12.3897C26.7915 12.2019 26.6861 11.9473 26.6861 11.6817C26.6861 9.13576 26.6834 7.3281 26.4993 5.95433C26.3192 4.61261 25.9803 3.83828 25.4158 3.27355C24.8514 2.70882 24.0775 2.36972 22.7352 2.18949ZM1.00073 16.0206C1.26614 16.0206 1.52068 16.1261 1.70835 16.3139C1.89602 16.5017 2.00146 16.7564 2.00146 17.0219C2.00146 19.5679 2.00413 21.3769 2.18826 22.7493C2.36839 24.091 2.70731 24.8654 3.27172 25.4301C3.83613 25.9948 4.61002 26.3339 5.95234 26.5141C7.324 26.6984 9.13065 26.701 11.6752 26.701C11.9406 26.701 12.1951 26.8065 12.3828 26.9943C12.5705 27.1821 12.6759 27.4368 12.6759 27.7023C12.6759 27.9679 12.5705 28.2226 12.3828 28.4104C12.1951 28.5981 11.9406 28.7036 11.6752 28.7036H11.6005C9.148 28.7036 7.20525 28.7036 5.68548 28.4994C4.12167 28.2884 2.85541 27.8452 1.85602 26.8466C0.857958 25.8466 0.414969 24.5796 0.204149 23.015C0 21.493 0 19.5505 0 17.0967V17.0219C0 16.7564 0.105434 16.5017 0.293107 16.3139C0.48078 16.1261 0.735319 16.0206 1.00073 16.0206ZM27.6868 16.0206C27.9522 16.0206 28.2068 16.1261 28.3945 16.3139C28.5821 16.5017 28.6876 16.7564 28.6876 17.0219V17.0967C28.6876 19.5505 28.6876 21.4943 28.4834 23.015C28.2726 24.5796 27.8296 25.8466 26.8315 26.8466C25.8321 27.8452 24.5659 28.2884 23.0021 28.4994C21.481 28.7036 19.5396 28.7036 17.0871 28.7036H17.0124C16.747 28.7036 16.4924 28.5981 16.3048 28.4104C16.1171 28.2226 16.0117 27.9679 16.0117 27.7023C16.0117 27.4368 16.1171 27.1821 16.3048 26.9943C16.4924 26.8065 16.747 26.701 17.0124 26.701C19.5569 26.701 21.3649 26.6984 22.7366 26.5141C24.0775 26.3339 24.8514 25.9948 25.4158 25.4301C25.9803 24.8654 26.3192 24.091 26.4993 22.748C26.6834 21.3769 26.6861 19.5679 26.6861 17.0219C26.6861 16.7564 26.7915 16.5017 26.9792 16.3139C27.1669 16.1261 27.4214 16.0206 27.6868 16.0206Z" fill="#B3B3B3"/>
</svg>
