<svg width="218" height="104" viewBox="0 0 218 104" fill="none" xmlns="http://www.w3.org/2000/svg">
<rect y="2" width="218" height="98" rx="49" fill="white" fill-opacity="0.2"/>
<path d="M66.88 61.04H65.24L64.88 61.44H71C70.9733 61.4667 70.9467 61.4933 70.92 61.52C70.8933 61.5467 70.8533 61.5867 70.8 61.64H61.36C61.2267 61.7733 61.08 61.9067 60.92 62.04C60.7867 62.1733 60.64 62.3067 60.48 62.44H63.4L62.88 62.84H68.32L68 63.04H65.64C65.6133 63.0667 65.56 63.0933 65.48 63.12C65.4267 63.1467 65.3733 63.1867 65.32 63.24H62.64L61.52 63.84H63.08C62.7333 64 62.3867 64.1467 62.04 64.28C61.6933 64.3867 61.3333 64.5067 60.96 64.64H59.52C58.6133 64.9067 57.6267 65.1067 56.56 65.24H56.76C56.3333 65.2933 55.8933 65.3333 55.44 65.36C54.9867 65.3867 54.5333 65.4 54.08 65.4C53.5733 65.4 53.0667 65.3867 52.56 65.36C52.08 65.3333 51.6133 65.2933 51.16 65.24H51C49.8533 65.1067 48.8267 64.9067 47.92 64.64H49.36C48.96 64.5067 48.5867 64.3867 48.24 64.28C47.8933 64.1467 47.5467 64 47.2 63.84H45.64C45.4533 63.7333 45.2667 63.64 45.08 63.56C44.8933 63.4533 44.7067 63.3467 44.52 63.24H47.24L46.92 63.04H49.28C49.2533 62.9867 49.2133 62.9467 49.16 62.92C49.1067 62.8933 49.0533 62.8667 49 62.84H43.56C43.4533 62.7867 43.36 62.72 43.28 62.64C43.2 62.56 43.12 62.4933 43.04 62.44H40.08C39.9467 62.3067 39.8133 62.1733 39.68 62.04C39.52 61.9067 39.3733 61.7733 39.24 61.64H48.68C48.6533 61.5867 48.6267 61.5467 48.6 61.52C48.5733 61.4933 48.5467 61.4667 48.52 61.44H42.4C42.2933 61.3333 42.1867 61.2 42.08 61.04H43.72C43.6933 60.9867 43.6667 60.9467 43.64 60.92C43.6133 60.8933 43.5867 60.8667 43.56 60.84H48.56L48.2 60.24H45.72L45.6 60.04H39.96C39.9333 59.9333 39.8933 59.84 39.84 59.76C39.7867 59.6533 39.7333 59.5467 39.68 59.44H42.36L42.12 58.84H41.16L41.08 58.64H41.52C41.4933 58.5333 41.4667 58.44 41.44 58.36C41.4133 58.2533 41.3867 58.1467 41.36 58.04H41.04C41.04 57.9333 41.0267 57.84 41 57.76C41 57.6533 40.9867 57.5467 40.96 57.44H40.64C40.64 57.3333 40.6267 57.24 40.6 57.16C40.6 57.08 40.6 56.9867 40.6 56.88V56.84H40.56C40.56 56.7867 40.56 56.7467 40.56 56.72C40.5867 56.6933 40.6 56.6667 40.6 56.64H41.52C41.6533 56.2133 41.9333 56 42.36 56H49.96C50.3867 56 50.7067 56.0533 50.92 56.16C51.1333 56.2667 51.3733 56.4267 51.64 56.64H50.72L50.76 56.68C50.8133 56.7067 50.8533 56.7333 50.88 56.76C50.9333 56.7867 50.9733 56.8133 51 56.84H51.04C51.3867 57.1067 51.8133 57.3067 52.32 57.44H52.68C53.0267 57.5467 53.4933 57.6 54.08 57.6C54.4267 57.6 54.7467 57.5867 55.04 57.56C55.3333 57.5333 55.5867 57.4933 55.8 57.44H55.68C56.2933 57.3067 56.68 57.1067 56.84 56.84H56.76C56.8133 56.7333 56.84 56.6667 56.84 56.64H57.24L57.28 56.48C57.28 56.24 57.1867 56.0267 57 55.84H56.68C56.44 55.6 56.0133 55.4 55.4 55.24H55.28C55.04 55.16 54.76 55.0933 54.44 55.04C54.12 54.96 53.7467 54.8933 53.32 54.84H53.08L51.44 54.6C51.2533 54.5733 51.0667 54.5467 50.88 54.52C50.72 54.4933 50.5467 54.4667 50.36 54.44C49.2667 54.2533 48.2133 53.9867 47.2 53.64H46.48C46.1067 53.5067 45.76 53.3733 45.44 53.24H44.88C44.7467 53.1867 44.6133 53.1333 44.48 53.08C44.3467 53 44.2133 52.92 44.08 52.84H40.6C40.4133 52.7333 40.24 52.64 40.08 52.56C39.92 52.4533 39.76 52.3467 39.6 52.24H47.04C46.9067 52.1333 46.7733 52.04 46.64 51.96C46.5333 51.8533 46.4133 51.7467 46.28 51.64H38.32C38.24 51.5867 38.1733 51.52 38.12 51.44C38.04 51.36 37.9733 51.2933 37.92 51.24H40C39.76 50.9733 39.5333 50.7067 39.32 50.44H39.92L39.68 50.04H35.84C35.8133 49.9867 35.7867 49.9467 35.76 49.92C35.7333 49.8933 35.72 49.8667 35.72 49.84H44.84C44.7867 49.7333 44.7333 49.64 44.68 49.56C44.6267 49.4533 44.5733 49.3467 44.52 49.24H37.52L37.28 48.64H42.92L42.84 48.44H41.16L41.08 48.24H41.88C41.88 48.1867 41.8667 48.1467 41.84 48.12C41.84 48.0933 41.84 48.0667 41.84 48.04H41.68L41.56 47.64H41.32L41.28 47.24H41.2V47.04H39.92C39.8933 46.9867 39.88 46.92 39.88 46.84C39.88 46.76 39.88 46.6933 39.88 46.64H38.72L38.68 46.24H43.24C43.2133 46.1867 43.2 46.12 43.2 46.04C43.2 45.96 43.2 45.8933 43.2 45.84H43.84V45.8C43.84 45.6667 43.84 45.5333 43.84 45.4C43.84 45.2667 43.8533 45.1467 43.88 45.04H42.16C42.1867 44.9333 42.2 44.84 42.2 44.76C42.2 44.6533 42.2133 44.5467 42.24 44.44H45.04C45.04 44.3867 45.04 44.3467 45.04 44.32C45.0667 44.2933 45.08 44.2667 45.08 44.24H42.24C42.2933 44.08 42.32 43.9467 42.32 43.84H41.88L42 43.44H41.32C41.4 43.1467 41.4933 42.88 41.6 42.64H41.92L42.08 42.24H42.52L42.88 41.64H42.48C42.56 41.5333 42.6267 41.44 42.68 41.36C42.76 41.2533 42.8267 41.1467 42.88 41.04H42.56L43.04 40.44H43.88C43.9067 40.3867 43.9333 40.3467 43.96 40.32C43.9867 40.2933 44.0133 40.2667 44.04 40.24H42.92C43.0267 40.1333 43.1333 40.04 43.24 39.96C43.3467 39.8533 43.4533 39.7467 43.56 39.64H44.2C44.36 39.5067 44.52 39.3733 44.68 39.24C44.84 39.08 45.0133 38.9467 45.2 38.84H45.92C46.08 38.7333 46.24 38.64 46.4 38.56C46.56 38.4533 46.7333 38.3467 46.92 38.24H46.8C46.8533 38.1867 46.92 38.1467 47 38.12C47.08 38.0933 47.1467 38.0667 47.2 38.04H46.64C46.6933 37.9867 46.76 37.9467 46.84 37.92C46.92 37.8933 47 37.8667 47.08 37.84H46.68C47.0533 37.68 47.44 37.5333 47.84 37.4C48.2667 37.2667 48.6933 37.1467 49.12 37.04H49.72C50.3333 36.9067 50.9733 36.8 51.64 36.72C52.3333 36.64 53.0533 36.6 53.8 36.6C55.2133 36.6 56.5467 36.7467 57.8 37.04H57.24C58.0933 37.2267 58.92 37.4933 59.72 37.84H60.08C60.16 37.8667 60.24 37.8933 60.32 37.92C60.4 37.9467 60.48 37.9867 60.56 38.04H61.12C61.1733 38.0667 61.24 38.0933 61.32 38.12C61.4 38.1467 61.4667 38.1867 61.52 38.24H61.64C61.8267 38.3467 62 38.4533 62.16 38.56C62.3467 38.64 62.52 38.7333 62.68 38.84H62C62.2133 38.9467 62.4 39.08 62.56 39.24C62.7467 39.3733 62.92 39.5067 63.08 39.64H62.48L63.12 40.24H64.24L64.44 40.44H63.6C63.7067 40.5467 63.8 40.6533 63.88 40.76C63.9867 40.84 64.08 40.9333 64.16 41.04H64.48L64.96 41.64H65.32L65.68 42.24H65.24C65.32 42.3733 65.3867 42.5067 65.44 42.64H65.12C65.2 42.7733 65.2667 42.9067 65.32 43.04C65.3733 43.1733 65.4267 43.3067 65.48 43.44H66.16C66.2133 43.6 66.24 43.7333 66.24 43.84H66.72C66.7467 43.8933 66.76 43.96 66.76 44.04C66.76 44.12 66.7733 44.1867 66.8 44.24H69.64V44.44H67.08C67.1067 44.5467 67.12 44.6933 67.12 44.88V45.04H65.64C65.5333 45.52 65.2667 45.76 64.84 45.76H56.84C56.4667 45.76 56.16 45.7067 55.92 45.6C55.7067 45.4933 55.48 45.3333 55.24 45.12L55.12 45.04H56.6C56.4667 44.9333 56.28 44.8267 56.04 44.72C55.8 44.5867 55.4933 44.4933 55.12 44.44H53.68C53.12 44.52 52.7333 44.72 52.52 45.04H54.24C54.16 45.2 54.12 45.36 54.12 45.52C54.12 45.6533 54.1333 45.76 54.16 45.84H53.56C53.5867 45.9733 53.6933 46.1067 53.88 46.24H49.36C49.52 46.3733 49.8 46.5067 50.2 46.64H51.36C51.5733 46.72 51.8267 46.8 52.12 46.88C52.44 46.9333 52.7733 46.9867 53.12 47.04H54.4C54.6133 47.0667 54.84 47.0933 55.08 47.12C55.32 47.1467 55.5733 47.1867 55.84 47.24H55.88C56.3333 47.2933 56.7733 47.36 57.2 47.44C57.6267 47.4933 58.0267 47.56 58.4 47.64H58.64C58.96 47.6933 59.2533 47.76 59.52 47.84C59.8133 47.8933 60.0933 47.96 60.36 48.04H60.52C60.6533 48.0667 60.7733 48.0933 60.88 48.12C60.9867 48.1467 61.0933 48.1867 61.2 48.24H60.44C60.5467 48.2667 60.64 48.2933 60.72 48.32C60.8267 48.3467 60.9333 48.3867 61.04 48.44H62.72C62.8 48.4667 62.88 48.4933 62.96 48.52C63.0667 48.5467 63.16 48.5867 63.24 48.64H57.6C58.1333 48.8533 58.56 49.0533 58.88 49.24H65.88C66.04 49.3467 66.2 49.4533 66.36 49.56C66.52 49.64 66.6667 49.7333 66.8 49.84H57.68C57.7333 49.8667 57.7867 49.8933 57.84 49.92C57.8933 49.9467 57.9333 49.9867 57.96 50.04H61.8C61.88 50.0933 61.96 50.16 62.04 50.24C62.12 50.32 62.1867 50.3867 62.24 50.44H61.64C61.9067 50.68 62.1333 50.9467 62.32 51.24H60.24C60.2933 51.2933 60.3467 51.36 60.4 51.44C60.4533 51.52 60.4933 51.5867 60.52 51.64H68.44L68.8 52.24H61.36C61.4133 52.3467 61.4667 52.4533 61.52 52.56C61.5733 52.64 61.6133 52.7333 61.64 52.84H65.08L65.2 53.24H65.76L65.88 53.64H66.6C66.6533 53.7467 66.68 53.88 66.68 54.04C66.7067 54.1733 66.7333 54.3067 66.76 54.44L66.8 54.84H67.04C67.0667 54.8933 67.08 54.96 67.08 55.04C67.08 55.12 67.08 55.1867 67.08 55.24H67.2V55.84H67.56V55.96C67.56 56.0667 67.5467 56.1733 67.52 56.28C67.52 56.3867 67.52 56.5067 67.52 56.64H67.12V56.84H67.2C67.2 56.9467 67.1867 57.0533 67.16 57.16C67.16 57.24 67.1467 57.3333 67.12 57.44H67.24L67.12 58.04H67.44C67.4133 58.1467 67.3867 58.2533 67.36 58.36C67.3333 58.44 67.2933 58.5333 67.24 58.64H66.8C66.8 58.6667 66.7867 58.6933 66.76 58.72C66.76 58.7467 66.76 58.7867 66.76 58.84H67.72L67.48 59.44H64.8C64.7733 59.5467 64.72 59.6533 64.64 59.76C64.5867 59.84 64.5333 59.9333 64.48 60.04H70.12L70 60.24H72.44C72.3867 60.3467 72.32 60.4533 72.24 60.56C72.1867 60.64 72.12 60.7333 72.04 60.84H67.04C67.0133 60.8667 66.9867 60.8933 66.96 60.92C66.9333 60.9467 66.9067 60.9867 66.88 61.04ZM56.48 44.44H57.68C57.6 44.4133 57.5067 44.4 57.4 44.4C57.32 44.4 57.2267 44.4 57.12 44.4C57.0133 44.4 56.9067 44.4 56.8 44.4C56.6933 44.4 56.5867 44.4133 56.48 44.44ZM96.2172 40.64H88.7772V41.44H91.6172V42.04H94.6972V42.64H94.6172V43.24H95.7772V44.04H91.4172V44.24H90.5772V44.52C90.5772 44.7067 90.5372 44.88 90.4572 45.04H93.2972C93.1105 45.4133 92.8039 45.6 92.3772 45.6H85.7372V45.64H86.1372V46.44H86.2172V47.24H86.0172V48.04H85.4972V48.64H87.4972V49.04H85.8172V49.64H84.9372V50.44H86.4572V50.84H86.1772V51.64H85.8972V52.44H85.4172V53.24H84.9772V53.84H86.4572V54.44H85.8572V55.24H86.0972V55.44H86.3772V55.84H88.3772V56.44H87.0172V57.24H87.6172V58.04H85.9372V58.84H86.6172V59.24H86.8972V59.84H87.5372V60.64H87.2972V61.24H86.2572V61.84H86.1372V62.24H86.0972V62.84H86.5372V63.44H86.1772V63.92C86.1772 64.0533 86.1639 64.16 86.1372 64.24H85.7372C85.6572 64.5067 85.5105 64.7067 85.2972 64.84H85.3772C85.2439 64.9467 85.0572 65 84.8172 65H76.8172C76.6039 65 76.4039 64.9467 76.2172 64.84H76.1372C75.9505 64.7067 75.8039 64.5067 75.6972 64.24H76.0572C76.0305 64.16 76.0172 64.0533 76.0172 63.92V63.44H76.3772V62.84H75.9372V62.24H75.9772V61.84H76.0972V61.24H77.1372V60.64H77.3772V59.84H76.7372V59.24H76.4572V58.84H75.7772V58.04H77.4572V57.24H76.8572V56.44H78.2172V55.84H76.2172V55.44H75.9372V55.24H75.6972V54.44H76.2972V53.84H74.8172V53.24H75.2572V52.44H75.7372V51.64H76.0172V50.84H76.2972V50.44H74.7772V49.64H75.6572V49.04H77.3372V48.64H75.3372V48.04H75.8572V47.24H76.0572V46.44H75.9772V45.64H75.5772V45.6H68.9372C68.5372 45.6 68.2172 45.4133 67.9772 45.04H65.1372C65.1105 44.96 65.0839 44.88 65.0572 44.8C65.0039 44.72 64.9772 44.6267 64.9772 44.52V44.24H65.8172V44.04H70.1772V43.24H69.0172V42.64H69.0972V42.04H66.0172V41.44H63.1772V40.64H70.6172V40.04H66.4572V39.24H67.2572V38.44H68.2972V38.24H68.8972V38.08C68.8972 37.8133 68.9772 37.6 69.1372 37.44H68.2572C68.4705 37.1467 68.7639 37 69.1372 37H92.5772C92.9505 37 93.2439 37.1467 93.4572 37.44H94.2972C94.4305 37.6267 94.4972 37.84 94.4972 38.08V38.24H93.8972V38.44H92.8572V39.24H92.0572V40.04H96.2172V40.64ZM122.477 62.84L122.757 63.64H122.077L122.157 63.84C122.157 63.8667 122.157 63.9067 122.157 63.96C122.184 63.9867 122.197 64.0133 122.197 64.04H121.957V64.12C121.957 64.44 121.837 64.68 121.597 64.84H121.637C121.504 64.9467 121.33 65 121.117 65H113.717C113.53 65 113.37 64.9867 113.237 64.96C113.13 64.9067 113.01 64.8667 112.877 64.84C112.664 64.7333 112.504 64.6133 112.397 64.48C112.29 64.32 112.21 64.1733 112.157 64.04H112.357V64L112.277 63.84L112.197 63.64H112.877L112.597 62.84H111.837L111.717 62.44H113.357L113.077 61.64H112.597L112.477 61.36H103.877L103.797 61.64H103.317L103.037 62.44H102.597L102.437 62.84H102.197L101.917 63.64H101.957L101.877 63.84L101.837 64L101.797 64.04H101.597C101.544 64.1733 101.464 64.32 101.357 64.48C101.25 64.6133 101.09 64.7333 100.877 64.84H102.077C101.97 64.8667 101.85 64.9067 101.717 64.96C101.584 64.9867 101.424 65 101.237 65H93.8369C93.6235 65 93.4635 64.9467 93.3569 64.84H92.1569C91.8902 64.6533 91.7569 64.4133 91.7569 64.12V64.04H91.9969C91.9969 63.96 92.0102 63.8933 92.0369 63.84L92.0769 63.64H92.0369L92.3169 62.84H92.5569L92.7169 62.44H93.1569L93.4369 61.64H93.8769L94.1569 60.84H92.5969L92.7569 60.44H92.6369L92.8369 59.84H93.2369L93.3169 59.64H92.4369L92.7169 58.84H94.0769L94.1969 58.44H92.9569L93.0369 58.24H93.2369L93.5169 57.44H93.3969L93.5969 56.84H93.7569L94.0369 56.04H94.5569L94.7569 55.44L94.8369 55.24H96.8369L96.9169 55.04H96.7969L96.9969 54.44H94.7569L95.0369 53.64H95.7569L95.8369 53.44H95.3969L95.4769 53.24H96.7569L97.0369 52.44H95.4769L95.6369 52.04H96.2369L96.5169 51.24H96.1569L96.3569 50.64H96.7969L97.0769 49.84H96.9569L97.0369 49.64H96.1169L96.2769 49.24H97.1569L97.3569 48.64H96.9569L96.9969 48.44H97.7169L97.9969 47.64H97.1169L97.3169 47.04H96.8769L96.9969 46.64H94.2369L94.3569 46.24H93.8369L94.1169 45.44H93.5969L93.8369 44.84H95.3969L95.6769 44.04H99.6769L99.8769 43.44H97.9569L98.1169 43.04H99.5969L99.8769 42.24H98.5569L98.7569 41.64H99.5969L99.8769 40.84H99.7569L100.037 40.04H98.9169L98.9569 39.84H102.797L103.077 39.04H102.957L103.037 38.84H101.637L101.797 38.32L101.917 38.04H102.317L102.557 37.64H102.437C102.57 37.4533 102.757 37.3067 102.997 37.2C103.237 37.0667 103.53 37 103.877 37H112.557C112.904 37 113.197 37.0667 113.437 37.2C113.677 37.3067 113.864 37.4533 113.997 37.64H114.157L114.397 38.04H113.997C114.05 38.1467 114.077 38.24 114.077 38.32L114.277 38.84H115.677L115.717 39.04H115.837L116.117 39.84H112.317L112.397 40.04H113.517L113.797 40.84H113.917L114.197 41.64H113.357L113.557 42.24H114.877L115.157 43.04H113.677L113.837 43.44H115.757L115.957 44.04H111.957L112.237 44.84H110.677L110.877 45.44H111.357L111.637 46.24H110.077L110.237 46.64H116.597L116.717 47.04H116.397L116.597 47.64H115.797L116.077 48.44H115.117L115.157 48.64H116.597L116.797 49.24H116.837L116.997 49.64H115.677L115.757 49.84H117.037L117.317 50.64H117.757L117.957 51.24H117.837L118.117 52.04H118.757L118.917 52.44H117.757L118.037 53.24H118.837L118.877 53.44H118.677L118.757 53.64H118.037L118.277 54.44H120.557L120.757 55.04H120.877L120.957 55.24H118.917L118.997 55.44H119.037L119.237 56.04H118.717L118.997 56.84H118.797L119.037 57.44H119.157L119.437 58.24H119.237L119.317 58.44H120.557L120.717 58.84H119.317L119.597 59.64H120.477L120.557 59.84H120.157L120.397 60.44H120.477L120.637 60.84H122.197L122.477 61.64H122.957L123.237 62.44H121.597L121.717 62.84H122.477ZM105.757 47.04H106.237L106.037 47.64H107.677L107.477 47.04H107.797L107.677 46.64H105.877L105.757 47.04ZM107.077 48.44L106.877 47.76L106.677 48.44H107.077ZM104.677 53.24L104.597 53.44H105.037L104.997 53.56H109.517L109.477 53.44H109.677L109.637 53.24H108.837L108.597 52.44H109.757L109.637 52.04H108.957L108.717 51.24H108.837L108.677 50.64H108.237L107.997 49.84H106.717L106.637 49.64H107.957L107.837 49.24H107.797L107.597 48.64H106.317L106.157 49.24H105.277L105.157 49.64H106.037L105.997 49.84H106.117L105.877 50.64H105.437L105.237 51.24H105.597L105.357 52.04H104.757L104.637 52.44H106.197L105.957 53.24H104.677ZM149.672 49.04H147.712C147.686 49.1467 147.659 49.2533 147.632 49.36C147.606 49.44 147.566 49.5333 147.512 49.64H148.632L148.512 50.04H147.552C147.472 50.28 147.366 50.5467 147.232 50.84H146.632C146.526 51.1067 146.379 51.3733 146.192 51.64H146.272C146.166 51.7733 146.072 51.9067 145.992 52.04C145.912 52.1733 145.819 52.3067 145.712 52.44H150.032L149.512 53.04H145.952C145.846 53.1733 145.712 53.3067 145.552 53.44C145.392 53.5733 145.246 53.7067 145.112 53.84H145.632C145.526 53.9467 145.392 54.0533 145.232 54.16C145.099 54.24 144.966 54.3333 144.832 54.44H146.152L145.992 54.56L146.352 55.24H145.392L145.832 56.04H145.952L146.072 56.24H146.032L146.432 57.04H146.832L147.072 57.44H143.992L144.312 58.04H147.112L147.352 58.44H146.472L146.792 59.04H150.752L151.192 59.84H148.552L148.872 60.44H147.632L148.272 61.64H148.552L148.792 62.04H148.672L148.792 62.24H146.912L147.352 63.04L147.432 63.24H146.192L146.392 63.68C146.472 63.7867 146.512 63.9067 146.512 64.04H147.352V64.12C147.352 64.4133 147.232 64.6533 146.992 64.84H148.072C147.939 64.9467 147.766 65 147.552 65H139.352C139.192 65 139.046 64.9867 138.912 64.96C138.806 64.9067 138.686 64.8667 138.552 64.84H137.472C137.259 64.7333 137.072 64.6 136.912 64.44C136.779 64.28 136.672 64.1467 136.592 64.04H135.792L135.712 63.92L135.432 63.24H136.712L136.592 63.04H132.792V63.24H130.752V64.04H133.992C133.939 64.4133 133.766 64.68 133.472 64.84H133.192C133.006 64.9467 132.806 65 132.592 65H124.752C124.512 65 124.326 64.9467 124.192 64.84H124.512C124.219 64.68 124.046 64.4133 123.992 64.04H120.792C120.792 64.0133 120.792 64 120.792 64C120.766 63.9733 120.752 63.9467 120.752 63.92V63.24H122.792V63.04H126.792V62.24H122.512V62.04H125.032V61.64H124.192V61.04H125.592V60.44H123.312V59.84H126.392V59.04H124.632V58.44H124.592V58.24H124.352V58.04H123.272V57.44H124.632V57.04H124.272V56.24H124.312V56.04H124.192V55.24H125.152V54.44H123.792V53.84H123.272V53.04H126.792V52.44H122.472V51.64H122.392V50.84H122.992V50.04H123.912V49.64H122.792V49.04H124.752V48.64H127.632V48.24H123.672V48.04H123.872V47.84H124.232V47.64H124.272V47.24H124.192V46.64H124.352V45.84H124.152V45.44H124.352V44.84H124.192V44.64H124.312V44.24H124.272V44.04H124.112V43.84H124.472V43.24H124.792V42.64H122.912V41.84H123.352V41.04H123.112V40.44H124.192V39.84H124.592V39.24H123.872V38.84H124.152V38.64H124.232V38.04H124.312C124.312 37.7467 124.432 37.48 124.672 37.24H126.832C126.992 37.08 127.219 37 127.512 37H139.352C140.499 37 141.566 37.08 142.552 37.24H140.432C141.499 37.4 142.512 37.6667 143.472 38.04H143.392C143.846 38.2 144.286 38.4 144.712 38.64H144.632L144.992 38.84H144.672C144.806 38.8933 144.912 38.96 144.992 39.04C145.099 39.12 145.206 39.1867 145.312 39.24H146.032C146.166 39.3467 146.299 39.4533 146.432 39.56C146.566 39.64 146.686 39.7333 146.792 39.84H146.392C146.526 39.9467 146.632 40.0533 146.712 40.16C146.819 40.24 146.926 40.3333 147.032 40.44H145.952C146.059 40.5467 146.152 40.6533 146.232 40.76C146.312 40.84 146.392 40.9333 146.472 41.04H146.672C146.886 41.3067 147.072 41.5733 147.232 41.84H146.832C146.912 41.9467 146.979 42.08 147.032 42.24C147.112 42.3733 147.192 42.5067 147.272 42.64H149.152L149.392 43.24H149.072C149.099 43.3467 149.126 43.4533 149.152 43.56C149.206 43.64 149.246 43.7333 149.272 43.84H148.872L148.952 44.04H149.112C149.139 44.0933 149.152 44.16 149.152 44.24L149.272 44.64H149.392C149.392 44.72 149.406 44.7867 149.432 44.84H149.472C149.499 44.9467 149.512 45.0533 149.512 45.16C149.539 45.24 149.552 45.3333 149.552 45.44H149.032C149.032 45.4933 149.032 45.56 149.032 45.64C149.032 45.72 149.046 45.7867 149.072 45.84H149.312C149.312 45.9733 149.312 46.1067 149.312 46.24C149.339 46.3733 149.352 46.5067 149.352 46.64V47.04H149.592V47.24H149.352V47.64H148.952C148.952 47.6667 148.939 47.6933 148.912 47.72C148.912 47.7467 148.912 47.7867 148.912 47.84H149.312C149.312 47.8667 149.299 47.8933 149.272 47.92C149.272 47.9467 149.272 47.9867 149.272 48.04H151.152C151.126 48.0933 151.112 48.16 151.112 48.24H151.632L151.592 48.64H149.752C149.699 48.8 149.672 48.9333 149.672 49.04ZM133.672 48.24H137.632V48.64H134.752V48.68H137.672C137.859 48.68 138.006 48.6667 138.112 48.64H139.952C140.246 48.56 140.512 48.4267 140.752 48.24H140.192L140.392 48.04H138.512C138.592 47.96 138.646 47.8933 138.672 47.84H138.272L138.392 47.64H138.792L138.912 47.24H139.112C139.139 47.1867 139.152 47.12 139.152 47.04H138.912L138.952 46.64C138.952 46.3733 138.912 46.1067 138.832 45.84H138.592C138.566 45.7867 138.539 45.72 138.512 45.64C138.512 45.56 138.486 45.4933 138.432 45.44H138.992C138.886 45.2267 138.739 45.0267 138.552 44.84H138.472C138.392 44.76 138.299 44.6933 138.192 44.64H138.072C137.806 44.5067 137.526 44.44 137.232 44.44H134.312V44.64H134.192V44.84H134.352V45.44H134.152V45.84H134.352V46.64H134.192V47.24H134.272V47.64H134.232V47.84H133.872V48.04H133.672V48.24ZM136.832 57.44L136.672 57.04H136.232L135.912 56.28H134.272V57.04H134.632V57.44H136.832ZM133.272 57.44V58.04H134.032L133.792 57.44H133.272ZM136.912 58.24L136.832 58.04H134.352V58.24H134.592V58.44H134.632V59.04H136.392V59.84H133.312V60.44H135.592V61.04H134.192V61.64H135.032V62.04H132.512V62.24H138.152L138.032 62.04H138.152L137.952 61.64H137.632L137.392 61.04L137.112 60.44H138.392L138.112 59.84H140.712L140.352 59.04H136.392L136.152 58.44H137.032L136.912 58.24ZM179.225 40.64H171.785V41.44H174.625V42.04H177.705V42.64H177.625V43.24H178.785V44.04H174.425V44.24H173.585V44.52C173.585 44.7067 173.545 44.88 173.465 45.04H176.305C176.118 45.4133 175.812 45.6 175.385 45.6H168.745V45.64H169.145V46.44H169.225V47.24H169.025V48.04H168.505V48.64H170.505V49.04H168.825V49.64H167.945V50.44H169.465V50.84H169.185V51.64H168.905V52.44H168.425V53.24H167.985V53.84H169.465V54.44H168.865V55.24H169.105V55.44H169.385V55.84H171.385V56.44H170.025V57.24H170.625V58.04H168.945V58.84H169.625V59.24H169.905V59.84H170.545V60.64H170.305V61.24H169.265V61.84H169.145V62.24H169.105V62.84H169.545V63.44H169.185V63.92C169.185 64.0533 169.172 64.16 169.145 64.24H168.745C168.665 64.5067 168.518 64.7067 168.305 64.84H168.385C168.252 64.9467 168.065 65 167.825 65H159.825C159.612 65 159.412 64.9467 159.225 64.84H159.145C158.958 64.7067 158.812 64.5067 158.705 64.24H159.065C159.038 64.16 159.025 64.0533 159.025 63.92V63.44H159.385V62.84H158.945V62.24H158.985V61.84H159.105V61.24H160.145V60.64H160.385V59.84H159.745V59.24H159.465V58.84H158.785V58.04H160.465V57.24H159.865V56.44H161.225V55.84H159.225V55.44H158.945V55.24H158.705V54.44H159.305V53.84H157.825V53.24H158.265V52.44H158.745V51.64H159.025V50.84H159.305V50.44H157.785V49.64H158.665V49.04H160.345V48.64H158.345V48.04H158.865V47.24H159.065V46.44H158.985V45.64H158.585V45.6H151.945C151.545 45.6 151.225 45.4133 150.985 45.04H148.145C148.118 44.96 148.092 44.88 148.065 44.8C148.012 44.72 147.985 44.6267 147.985 44.52V44.24H148.825V44.04H153.185V43.24H152.025V42.64H152.105V42.04H149.025V41.44H146.185V40.64H153.625V40.04H149.465V39.24H150.265V38.44H151.305V38.24H151.905V38.08C151.905 37.8133 151.985 37.6 152.145 37.44H151.265C151.478 37.1467 151.772 37 152.145 37H175.585C175.958 37 176.252 37.1467 176.465 37.44H177.305C177.438 37.6267 177.505 37.84 177.505 38.08V38.24H176.905V38.44H175.865V39.24H175.065V40.04H179.225V40.64Z" fill="white"/>
</svg>
