<svg width="975" height="229" viewBox="0 0 975 229" fill="none" xmlns="http://www.w3.org/2000/svg">
<path d="M955.557 105.568H963.371V123.432H955.557V105.568ZM940.16 128.662H947.974V100.338H940.16V128.662ZM925.021 143.313H932.834V85.6873H925.021V143.313ZM910.629 154.618H918.443V74.9096H910.629V154.599V154.618ZM895.222 135.153H903.035V93.8477H895.222V135.153ZM879.57 166.407H887.384V60.8256H879.545V166.407H879.57ZM864.168 181.545H871.981V47.4551H864.168V181.545ZM849.029 160.844H856.842V68.1559H849.029V160.845V160.844ZM833.367 134.522H841.181V95.4538H833.367V134.522ZM818.228 125.209H826.042V103.757H818.228V125.244V125.209ZM803.089 136.686H810.903V92.2993H803.089V136.7V136.686ZM788.195 158.173H796.008V68.2878H788.195V158.188L788.195 158.173ZM773.056 144.441H780.87V83.7878H773.056V144.456V144.441ZM757.629 128.662H765.443V100.338H757.629V128.662Z" fill="white" fill-opacity="0.2"/>
<path d="M735.132 110.007H739.5V119.992H735.132V110.007ZM726.526 122.915H730.894V107.083H726.526V122.915ZM718.064 131.104H722.432V98.8944H718.064V131.104ZM710.02 137.423H714.387V92.8702H710.02V137.413V137.423ZM701.408 126.543H705.775V103.456H701.408V126.543ZM692.659 144.013H697.027V84.9979H692.646V144.013H692.659ZM684.05 152.474H688.418V77.5244H684.05V152.474ZM675.588 140.903H679.956V89.0952H675.588V140.904V140.903ZM666.834 126.191H671.201V104.353H666.834V126.191ZM658.372 120.985H662.74V108.994H658.372V121.005V120.985ZM649.91 127.4H654.278V102.59H649.91V127.408V127.4ZM641.585 139.41H645.952V89.1689H641.585V139.419L641.585 139.41ZM633.123 131.735H637.49V97.8327H633.123V131.743V131.735ZM624.5 122.915H628.868V107.083H624.5V122.915Z" fill="white" fill-opacity="0.2"/>
<path d="M291.71 98.0654V126.937M301.973 87.8895V136.424M281.432 104.926V122.057M271.175 107.972V119.011M261.031 104.94V122.069M343.024 95.2594V129.757M353.287 87.8981V136.432M332.747 104.934V122.063M322.49 69.5791V157.421M312.345 104.949V122.078M373.969 106.993V119.92M363.712 97.8366V129.08" stroke="white" stroke-opacity="0.2" stroke-width="2.89583" stroke-linecap="round" stroke-linejoin="round"/>
<g clip-path="url(#clip0_7_1258)">
<path d="M205.157 106.117V122.733M211.063 100.26V128.193M199.242 110.065V119.925M193.338 111.818V118.172M187.5 110.073V119.932M234.69 104.502V124.357M240.597 100.265V128.198M228.775 110.07V119.928M222.872 89.7217V140.278M217.033 110.078V119.937M252.5 111.255V118.695M246.597 105.985V123.967" stroke="white" stroke-opacity="0.4" stroke-width="2.89583" stroke-linecap="round" stroke-linejoin="round"/>
<path d="M132.657 106.117V122.733M138.563 100.26V128.193M126.742 110.065V119.925M120.838 111.818V118.172M115 110.073V119.932M162.19 104.502V124.357M168.097 100.265V128.198M156.275 110.07V119.928M150.372 89.7217V140.278M144.533 110.078V119.937M180 111.255V118.695M174.097 105.985V123.967" stroke="white" stroke-opacity="0.4" stroke-width="2.89583" stroke-linecap="round" stroke-linejoin="round"/>
</g>
<path d="M32.6785 98.0654V126.937M42.9413 87.8895V136.424M22.4011 104.926V122.057M12.1441 107.972V119.011M2 104.94V122.069M83.9926 95.2594V129.757M94.2555 87.8981V136.432M73.7153 104.934V122.063M63.4583 69.5791V157.421M53.3142 104.949V122.078M114.938 106.993V119.92M104.68 97.8366V129.08" stroke="white" stroke-opacity="0.2" stroke-width="2.89583" stroke-linecap="round" stroke-linejoin="round"/>
<rect x="388" y="65" width="218" height="98" rx="49" fill="white" fill-opacity="0.2"/>
<path d="M454.88 124.04H453.24L452.88 124.44H459C458.973 124.467 458.947 124.493 458.92 124.52C458.893 124.547 458.853 124.587 458.8 124.64H449.36C449.227 124.773 449.08 124.907 448.92 125.04C448.787 125.173 448.64 125.307 448.48 125.44H451.4L450.88 125.84H456.32L456 126.04H453.64C453.613 126.067 453.56 126.093 453.48 126.12C453.427 126.147 453.373 126.187 453.32 126.24H450.64L449.52 126.84H451.08C450.733 127 450.387 127.147 450.04 127.28C449.693 127.387 449.333 127.507 448.96 127.64H447.52C446.613 127.907 445.627 128.107 444.56 128.24H444.76C444.333 128.293 443.893 128.333 443.44 128.36C442.987 128.387 442.533 128.4 442.08 128.4C441.573 128.4 441.067 128.387 440.56 128.36C440.08 128.333 439.613 128.293 439.16 128.24H439C437.853 128.107 436.827 127.907 435.92 127.64H437.36C436.96 127.507 436.587 127.387 436.24 127.28C435.893 127.147 435.547 127 435.2 126.84H433.64C433.453 126.733 433.267 126.64 433.08 126.56C432.893 126.453 432.707 126.347 432.52 126.24H435.24L434.92 126.04H437.28C437.253 125.987 437.213 125.947 437.16 125.92C437.107 125.893 437.053 125.867 437 125.84H431.56C431.453 125.787 431.36 125.72 431.28 125.64C431.2 125.56 431.12 125.493 431.04 125.44H428.08C427.947 125.307 427.813 125.173 427.68 125.04C427.52 124.907 427.373 124.773 427.24 124.64H436.68C436.653 124.587 436.627 124.547 436.6 124.52C436.573 124.493 436.547 124.467 436.52 124.44H430.4C430.293 124.333 430.187 124.2 430.08 124.04H431.72C431.693 123.987 431.667 123.947 431.64 123.92C431.613 123.893 431.587 123.867 431.56 123.84H436.56L436.2 123.24H433.72L433.6 123.04H427.96C427.933 122.933 427.893 122.84 427.84 122.76C427.787 122.653 427.733 122.547 427.68 122.44H430.36L430.12 121.84H429.16L429.08 121.64H429.52C429.493 121.533 429.467 121.44 429.44 121.36C429.413 121.253 429.387 121.147 429.36 121.04H429.04C429.04 120.933 429.027 120.84 429 120.76C429 120.653 428.987 120.547 428.96 120.44H428.64C428.64 120.333 428.627 120.24 428.6 120.16C428.6 120.08 428.6 119.987 428.6 119.88V119.84H428.56C428.56 119.787 428.56 119.747 428.56 119.72C428.587 119.693 428.6 119.667 428.6 119.64H429.52C429.653 119.213 429.933 119 430.36 119H437.96C438.387 119 438.707 119.053 438.92 119.16C439.133 119.267 439.373 119.427 439.64 119.64H438.72L438.76 119.68C438.813 119.707 438.853 119.733 438.88 119.76C438.933 119.787 438.973 119.813 439 119.84H439.04C439.387 120.107 439.813 120.307 440.32 120.44H440.68C441.027 120.547 441.493 120.6 442.08 120.6C442.427 120.6 442.747 120.587 443.04 120.56C443.333 120.533 443.587 120.493 443.8 120.44H443.68C444.293 120.307 444.68 120.107 444.84 119.84H444.76C444.813 119.733 444.84 119.667 444.84 119.64H445.24L445.28 119.48C445.28 119.24 445.187 119.027 445 118.84H444.68C444.44 118.6 444.013 118.4 443.4 118.24H443.28C443.04 118.16 442.76 118.093 442.44 118.04C442.12 117.96 441.747 117.893 441.32 117.84H441.08L439.44 117.6C439.253 117.573 439.067 117.547 438.88 117.52C438.72 117.493 438.547 117.467 438.36 117.44C437.267 117.253 436.213 116.987 435.2 116.64H434.48C434.107 116.507 433.76 116.373 433.44 116.24H432.88C432.747 116.187 432.613 116.133 432.48 116.08C432.347 116 432.213 115.92 432.08 115.84H428.6C428.413 115.733 428.24 115.64 428.08 115.56C427.92 115.453 427.76 115.347 427.6 115.24H435.04C434.907 115.133 434.773 115.04 434.64 114.96C434.533 114.853 434.413 114.747 434.28 114.64H426.32C426.24 114.587 426.173 114.52 426.12 114.44C426.04 114.36 425.973 114.293 425.92 114.24H428C427.76 113.973 427.533 113.707 427.32 113.44H427.92L427.68 113.04H423.84C423.813 112.987 423.787 112.947 423.76 112.92C423.733 112.893 423.72 112.867 423.72 112.84H432.84C432.787 112.733 432.733 112.64 432.68 112.56C432.627 112.453 432.573 112.347 432.52 112.24H425.52L425.28 111.64H430.92L430.84 111.44H429.16L429.08 111.24H429.88C429.88 111.187 429.867 111.147 429.84 111.12C429.84 111.093 429.84 111.067 429.84 111.04H429.68L429.56 110.64H429.32L429.28 110.24H429.2V110.04H427.92C427.893 109.987 427.88 109.92 427.88 109.84C427.88 109.76 427.88 109.693 427.88 109.64H426.72L426.68 109.24H431.24C431.213 109.187 431.2 109.12 431.2 109.04C431.2 108.96 431.2 108.893 431.2 108.84H431.84V108.8C431.84 108.667 431.84 108.533 431.84 108.4C431.84 108.267 431.853 108.147 431.88 108.04H430.16C430.187 107.933 430.2 107.84 430.2 107.76C430.2 107.653 430.213 107.547 430.24 107.44H433.04C433.04 107.387 433.04 107.347 433.04 107.32C433.067 107.293 433.08 107.267 433.08 107.24H430.24C430.293 107.08 430.32 106.947 430.32 106.84H429.88L430 106.44H429.32C429.4 106.147 429.493 105.88 429.6 105.64H429.92L430.08 105.24H430.52L430.88 104.64H430.48C430.56 104.533 430.627 104.44 430.68 104.36C430.76 104.253 430.827 104.147 430.88 104.04H430.56L431.04 103.44H431.88C431.907 103.387 431.933 103.347 431.96 103.32C431.987 103.293 432.013 103.267 432.04 103.24H430.92C431.027 103.133 431.133 103.04 431.24 102.96C431.347 102.853 431.453 102.747 431.56 102.64H432.2C432.36 102.507 432.52 102.373 432.68 102.24C432.84 102.08 433.013 101.947 433.2 101.84H433.92C434.08 101.733 434.24 101.64 434.4 101.56C434.56 101.453 434.733 101.347 434.92 101.24H434.8C434.853 101.187 434.92 101.147 435 101.12C435.08 101.093 435.147 101.067 435.2 101.04H434.64C434.693 100.987 434.76 100.947 434.84 100.92C434.92 100.893 435 100.867 435.08 100.84H434.68C435.053 100.68 435.44 100.533 435.84 100.4C436.267 100.267 436.693 100.147 437.12 100.04H437.72C438.333 99.9067 438.973 99.8 439.64 99.72C440.333 99.64 441.053 99.6 441.8 99.6C443.213 99.6 444.547 99.7467 445.8 100.04H445.24C446.093 100.227 446.92 100.493 447.72 100.84H448.08C448.16 100.867 448.24 100.893 448.32 100.92C448.4 100.947 448.48 100.987 448.56 101.04H449.12C449.173 101.067 449.24 101.093 449.32 101.12C449.4 101.147 449.467 101.187 449.52 101.24H449.64C449.827 101.347 450 101.453 450.16 101.56C450.347 101.64 450.52 101.733 450.68 101.84H450C450.213 101.947 450.4 102.08 450.56 102.24C450.747 102.373 450.92 102.507 451.08 102.64H450.48L451.12 103.24H452.24L452.44 103.44H451.6C451.707 103.547 451.8 103.653 451.88 103.76C451.987 103.84 452.08 103.933 452.16 104.04H452.48L452.96 104.64H453.32L453.68 105.24H453.24C453.32 105.373 453.387 105.507 453.44 105.64H453.12C453.2 105.773 453.267 105.907 453.32 106.04C453.373 106.173 453.427 106.307 453.48 106.44H454.16C454.213 106.6 454.24 106.733 454.24 106.84H454.72C454.747 106.893 454.76 106.96 454.76 107.04C454.76 107.12 454.773 107.187 454.8 107.24H457.64V107.44H455.08C455.107 107.547 455.12 107.693 455.12 107.88V108.04H453.64C453.533 108.52 453.267 108.76 452.84 108.76H444.84C444.467 108.76 444.16 108.707 443.92 108.6C443.707 108.493 443.48 108.333 443.24 108.12L443.12 108.04H444.6C444.467 107.933 444.28 107.827 444.04 107.72C443.8 107.587 443.493 107.493 443.12 107.44H441.68C441.12 107.52 440.733 107.72 440.52 108.04H442.24C442.16 108.2 442.12 108.36 442.12 108.52C442.12 108.653 442.133 108.76 442.16 108.84H441.56C441.587 108.973 441.693 109.107 441.88 109.24H437.36C437.52 109.373 437.8 109.507 438.2 109.64H439.36C439.573 109.72 439.827 109.8 440.12 109.88C440.44 109.933 440.773 109.987 441.12 110.04H442.4C442.613 110.067 442.84 110.093 443.08 110.12C443.32 110.147 443.573 110.187 443.84 110.24H443.88C444.333 110.293 444.773 110.36 445.2 110.44C445.627 110.493 446.027 110.56 446.4 110.64H446.64C446.96 110.693 447.253 110.76 447.52 110.84C447.813 110.893 448.093 110.96 448.36 111.04H448.52C448.653 111.067 448.773 111.093 448.88 111.12C448.987 111.147 449.093 111.187 449.2 111.24H448.44C448.547 111.267 448.64 111.293 448.72 111.32C448.827 111.347 448.933 111.387 449.04 111.44H450.72C450.8 111.467 450.88 111.493 450.96 111.52C451.067 111.547 451.16 111.587 451.24 111.64H445.6C446.133 111.853 446.56 112.053 446.88 112.24H453.88C454.04 112.347 454.2 112.453 454.36 112.56C454.52 112.64 454.667 112.733 454.8 112.84H445.68C445.733 112.867 445.787 112.893 445.84 112.92C445.893 112.947 445.933 112.987 445.96 113.04H449.8C449.88 113.093 449.96 113.16 450.04 113.24C450.12 113.32 450.187 113.387 450.24 113.44H449.64C449.907 113.68 450.133 113.947 450.32 114.24H448.24C448.293 114.293 448.347 114.36 448.4 114.44C448.453 114.52 448.493 114.587 448.52 114.64H456.44L456.8 115.24H449.36C449.413 115.347 449.467 115.453 449.52 115.56C449.573 115.64 449.613 115.733 449.64 115.84H453.08L453.2 116.24H453.76L453.88 116.64H454.6C454.653 116.747 454.68 116.88 454.68 117.04C454.707 117.173 454.733 117.307 454.76 117.44L454.8 117.84H455.04C455.067 117.893 455.08 117.96 455.08 118.04C455.08 118.12 455.08 118.187 455.08 118.24H455.2V118.84H455.56V118.96C455.56 119.067 455.547 119.173 455.52 119.28C455.52 119.387 455.52 119.507 455.52 119.64H455.12V119.84H455.2C455.2 119.947 455.187 120.053 455.16 120.16C455.16 120.24 455.147 120.333 455.12 120.44H455.24L455.12 121.04H455.44C455.413 121.147 455.387 121.253 455.36 121.36C455.333 121.44 455.293 121.533 455.24 121.64H454.8C454.8 121.667 454.787 121.693 454.76 121.72C454.76 121.747 454.76 121.787 454.76 121.84H455.72L455.48 122.44H452.8C452.773 122.547 452.72 122.653 452.64 122.76C452.587 122.84 452.533 122.933 452.48 123.04H458.12L458 123.24H460.44C460.387 123.347 460.32 123.453 460.24 123.56C460.187 123.64 460.12 123.733 460.04 123.84H455.04C455.013 123.867 454.987 123.893 454.96 123.92C454.933 123.947 454.907 123.987 454.88 124.04ZM444.48 107.44H445.68C445.6 107.413 445.507 107.4 445.4 107.4C445.32 107.4 445.227 107.4 445.12 107.4C445.013 107.4 444.907 107.4 444.8 107.4C444.693 107.4 444.587 107.413 444.48 107.44ZM484.217 103.64H476.777V104.44H479.617V105.04H482.697V105.64H482.617V106.24H483.777V107.04H479.417V107.24H478.577V107.52C478.577 107.707 478.537 107.88 478.457 108.04H481.297C481.111 108.413 480.804 108.6 480.377 108.6H473.737V108.64H474.137V109.44H474.217V110.24H474.017V111.04H473.497V111.64H475.497V112.04H473.817V112.64H472.937V113.44H474.457V113.84H474.177V114.64H473.897V115.44H473.417V116.24H472.977V116.84H474.457V117.44H473.857V118.24H474.097V118.44H474.377V118.84H476.377V119.44H475.017V120.24H475.617V121.04H473.937V121.84H474.617V122.24H474.897V122.84H475.537V123.64H475.297V124.24H474.257V124.84H474.137V125.24H474.097V125.84H474.537V126.44H474.177V126.92C474.177 127.053 474.164 127.16 474.137 127.24H473.737C473.657 127.507 473.511 127.707 473.297 127.84H473.377C473.244 127.947 473.057 128 472.817 128H464.817C464.604 128 464.404 127.947 464.217 127.84H464.137C463.951 127.707 463.804 127.507 463.697 127.24H464.057C464.031 127.16 464.017 127.053 464.017 126.92V126.44H464.377V125.84H463.937V125.24H463.977V124.84H464.097V124.24H465.137V123.64H465.377V122.84H464.737V122.24H464.457V121.84H463.777V121.04H465.457V120.24H464.857V119.44H466.217V118.84H464.217V118.44H463.937V118.24H463.697V117.44H464.297V116.84H462.817V116.24H463.257V115.44H463.737V114.64H464.017V113.84H464.297V113.44H462.777V112.64H463.657V112.04H465.337V111.64H463.337V111.04H463.857V110.24H464.057V109.44H463.977V108.64H463.577V108.6H456.937C456.537 108.6 456.217 108.413 455.977 108.04H453.137C453.111 107.96 453.084 107.88 453.057 107.8C453.004 107.72 452.977 107.627 452.977 107.52V107.24H453.817V107.04H458.177V106.24H457.017V105.64H457.097V105.04H454.017V104.44H451.177V103.64H458.617V103.04H454.457V102.24H455.257V101.44H456.297V101.24H456.897V101.08C456.897 100.813 456.977 100.6 457.137 100.44H456.257C456.471 100.147 456.764 100 457.137 100H480.577C480.951 100 481.244 100.147 481.457 100.44H482.297C482.431 100.627 482.497 100.84 482.497 101.08V101.24H481.897V101.44H480.857V102.24H480.057V103.04H484.217V103.64ZM510.477 125.84L510.757 126.64H510.077L510.157 126.84C510.157 126.867 510.157 126.907 510.157 126.96C510.184 126.987 510.197 127.013 510.197 127.04H509.957V127.12C509.957 127.44 509.837 127.68 509.597 127.84H509.637C509.504 127.947 509.33 128 509.117 128H501.717C501.53 128 501.37 127.987 501.237 127.96C501.13 127.907 501.01 127.867 500.877 127.84C500.664 127.733 500.504 127.613 500.397 127.48C500.29 127.32 500.21 127.173 500.157 127.04H500.357V127L500.277 126.84L500.197 126.64H500.877L500.597 125.84H499.837L499.717 125.44H501.357L501.077 124.64H500.597L500.477 124.36H491.877L491.797 124.64H491.317L491.037 125.44H490.597L490.437 125.84H490.197L489.917 126.64H489.957L489.877 126.84L489.837 127L489.797 127.04H489.597C489.544 127.173 489.464 127.32 489.357 127.48C489.25 127.613 489.09 127.733 488.877 127.84H490.077C489.97 127.867 489.85 127.907 489.717 127.96C489.584 127.987 489.424 128 489.237 128H481.837C481.624 128 481.464 127.947 481.357 127.84H480.157C479.89 127.653 479.757 127.413 479.757 127.12V127.04H479.997C479.997 126.96 480.01 126.893 480.037 126.84L480.077 126.64H480.037L480.317 125.84H480.557L480.717 125.44H481.157L481.437 124.64H481.877L482.157 123.84H480.597L480.757 123.44H480.637L480.837 122.84H481.237L481.317 122.64H480.437L480.717 121.84H482.077L482.197 121.44H480.957L481.037 121.24H481.237L481.517 120.44H481.397L481.597 119.84H481.757L482.037 119.04H482.557L482.757 118.44L482.837 118.24H484.837L484.917 118.04H484.797L484.997 117.44H482.757L483.037 116.64H483.757L483.837 116.44H483.397L483.477 116.24H484.757L485.037 115.44H483.477L483.637 115.04H484.237L484.517 114.24H484.157L484.357 113.64H484.797L485.077 112.84H484.957L485.037 112.64H484.117L484.277 112.24H485.157L485.357 111.64H484.957L484.997 111.44H485.717L485.997 110.64H485.117L485.317 110.04H484.877L484.997 109.64H482.237L482.357 109.24H481.837L482.117 108.44H481.597L481.837 107.84H483.397L483.677 107.04H487.677L487.877 106.44H485.957L486.117 106.04H487.597L487.877 105.24H486.557L486.757 104.64H487.597L487.877 103.84H487.757L488.037 103.04H486.917L486.957 102.84H490.797L491.077 102.04H490.957L491.037 101.84H489.637L489.797 101.32L489.917 101.04H490.317L490.557 100.64H490.437C490.57 100.453 490.757 100.307 490.997 100.2C491.237 100.067 491.53 100 491.877 100H500.557C500.904 100 501.197 100.067 501.437 100.2C501.677 100.307 501.864 100.453 501.997 100.64H502.157L502.397 101.04H501.997C502.05 101.147 502.077 101.24 502.077 101.32L502.277 101.84H503.677L503.717 102.04H503.837L504.117 102.84H500.317L500.397 103.04H501.517L501.797 103.84H501.917L502.197 104.64H501.357L501.557 105.24H502.877L503.157 106.04H501.677L501.837 106.44H503.757L503.957 107.04H499.957L500.237 107.84H498.677L498.877 108.44H499.357L499.637 109.24H498.077L498.237 109.64H504.597L504.717 110.04H504.397L504.597 110.64H503.797L504.077 111.44H503.117L503.157 111.64H504.597L504.797 112.24H504.837L504.997 112.64H503.677L503.757 112.84H505.037L505.317 113.64H505.757L505.957 114.24H505.837L506.117 115.04H506.757L506.917 115.44H505.757L506.037 116.24H506.837L506.877 116.44H506.677L506.757 116.64H506.037L506.277 117.44H508.557L508.757 118.04H508.877L508.957 118.24H506.917L506.997 118.44H507.037L507.237 119.04H506.717L506.997 119.84H506.797L507.037 120.44H507.157L507.437 121.24H507.237L507.317 121.44H508.557L508.717 121.84H507.317L507.597 122.64H508.477L508.557 122.84H508.157L508.397 123.44H508.477L508.637 123.84H510.197L510.477 124.64H510.957L511.237 125.44H509.597L509.717 125.84H510.477ZM493.757 110.04H494.237L494.037 110.64H495.677L495.477 110.04H495.797L495.677 109.64H493.877L493.757 110.04ZM495.077 111.44L494.877 110.76L494.677 111.44H495.077ZM492.677 116.24L492.597 116.44H493.037L492.997 116.56H497.517L497.477 116.44H497.677L497.637 116.24H496.837L496.597 115.44H497.757L497.637 115.04H496.957L496.717 114.24H496.837L496.677 113.64H496.237L495.997 112.84H494.717L494.637 112.64H495.957L495.837 112.24H495.797L495.597 111.64H494.317L494.157 112.24H493.277L493.157 112.64H494.037L493.997 112.84H494.117L493.877 113.64H493.437L493.237 114.24H493.597L493.357 115.04H492.757L492.637 115.44H494.197L493.957 116.24H492.677ZM537.672 112.04H535.712C535.686 112.147 535.659 112.253 535.632 112.36C535.606 112.44 535.566 112.533 535.512 112.64H536.632L536.512 113.04H535.552C535.472 113.28 535.366 113.547 535.232 113.84H534.632C534.526 114.107 534.379 114.373 534.192 114.64H534.272C534.166 114.773 534.072 114.907 533.992 115.04C533.912 115.173 533.819 115.307 533.712 115.44H538.032L537.512 116.04H533.952C533.846 116.173 533.712 116.307 533.552 116.44C533.392 116.573 533.246 116.707 533.112 116.84H533.632C533.526 116.947 533.392 117.053 533.232 117.16C533.099 117.24 532.966 117.333 532.832 117.44H534.152L533.992 117.56L534.352 118.24H533.392L533.832 119.04H533.952L534.072 119.24H534.032L534.432 120.04H534.832L535.072 120.44H531.992L532.312 121.04H535.112L535.352 121.44H534.472L534.792 122.04H538.752L539.192 122.84H536.552L536.872 123.44H535.632L536.272 124.64H536.552L536.792 125.04H536.672L536.792 125.24H534.912L535.352 126.04L535.432 126.24H534.192L534.392 126.68C534.472 126.787 534.512 126.907 534.512 127.04H535.352V127.12C535.352 127.413 535.232 127.653 534.992 127.84H536.072C535.939 127.947 535.766 128 535.552 128H527.352C527.192 128 527.046 127.987 526.912 127.96C526.806 127.907 526.686 127.867 526.552 127.84H525.472C525.259 127.733 525.072 127.6 524.912 127.44C524.779 127.28 524.672 127.147 524.592 127.04H523.792L523.712 126.92L523.432 126.24H524.712L524.592 126.04H520.792V126.24H518.752V127.04H521.992C521.939 127.413 521.766 127.68 521.472 127.84H521.192C521.006 127.947 520.806 128 520.592 128H512.752C512.512 128 512.326 127.947 512.192 127.84H512.512C512.219 127.68 512.046 127.413 511.992 127.04H508.792C508.792 127.013 508.792 127 508.792 127C508.766 126.973 508.752 126.947 508.752 126.92V126.24H510.792V126.04H514.792V125.24H510.512V125.04H513.032V124.64H512.192V124.04H513.592V123.44H511.312V122.84H514.392V122.04H512.632V121.44H512.592V121.24H512.352V121.04H511.272V120.44H512.632V120.04H512.272V119.24H512.312V119.04H512.192V118.24H513.152V117.44H511.792V116.84H511.272V116.04H514.792V115.44H510.472V114.64H510.392V113.84H510.992V113.04H511.912V112.64H510.792V112.04H512.752V111.64H515.632V111.24H511.672V111.04H511.872V110.84H512.232V110.64H512.272V110.24H512.192V109.64H512.352V108.84H512.152V108.44H512.352V107.84H512.192V107.64H512.312V107.24H512.272V107.04H512.112V106.84H512.472V106.24H512.792V105.64H510.912V104.84H511.352V104.04H511.112V103.44H512.192V102.84H512.592V102.24H511.872V101.84H512.152V101.64H512.232V101.04H512.312C512.312 100.747 512.432 100.48 512.672 100.24H514.832C514.992 100.08 515.219 100 515.512 100H527.352C528.499 100 529.566 100.08 530.552 100.24H528.432C529.499 100.4 530.512 100.667 531.472 101.04H531.392C531.846 101.2 532.286 101.4 532.712 101.64H532.632L532.992 101.84H532.672C532.806 101.893 532.912 101.96 532.992 102.04C533.099 102.12 533.206 102.187 533.312 102.24H534.032C534.166 102.347 534.299 102.453 534.432 102.56C534.566 102.64 534.686 102.733 534.792 102.84H534.392C534.526 102.947 534.632 103.053 534.712 103.16C534.819 103.24 534.926 103.333 535.032 103.44H533.952C534.059 103.547 534.152 103.653 534.232 103.76C534.312 103.84 534.392 103.933 534.472 104.04H534.672C534.886 104.307 535.072 104.573 535.232 104.84H534.832C534.912 104.947 534.979 105.08 535.032 105.24C535.112 105.373 535.192 105.507 535.272 105.64H537.152L537.392 106.24H537.072C537.099 106.347 537.126 106.453 537.152 106.56C537.206 106.64 537.246 106.733 537.272 106.84H536.872L536.952 107.04H537.112C537.139 107.093 537.152 107.16 537.152 107.24L537.272 107.64H537.392C537.392 107.72 537.406 107.787 537.432 107.84H537.472C537.499 107.947 537.512 108.053 537.512 108.16C537.539 108.24 537.552 108.333 537.552 108.44H537.032C537.032 108.493 537.032 108.56 537.032 108.64C537.032 108.72 537.046 108.787 537.072 108.84H537.312C537.312 108.973 537.312 109.107 537.312 109.24C537.339 109.373 537.352 109.507 537.352 109.64V110.04H537.592V110.24H537.352V110.64H536.952C536.952 110.667 536.939 110.693 536.912 110.72C536.912 110.747 536.912 110.787 536.912 110.84H537.312C537.312 110.867 537.299 110.893 537.272 110.92C537.272 110.947 537.272 110.987 537.272 111.04H539.152C539.126 111.093 539.112 111.16 539.112 111.24H539.632L539.592 111.64H537.752C537.699 111.8 537.672 111.933 537.672 112.04ZM521.672 111.24H525.632V111.64H522.752V111.68H525.672C525.859 111.68 526.006 111.667 526.112 111.64H527.952C528.246 111.56 528.512 111.427 528.752 111.24H528.192L528.392 111.04H526.512C526.592 110.96 526.646 110.893 526.672 110.84H526.272L526.392 110.64H526.792L526.912 110.24H527.112C527.139 110.187 527.152 110.12 527.152 110.04H526.912L526.952 109.64C526.952 109.373 526.912 109.107 526.832 108.84H526.592C526.566 108.787 526.539 108.72 526.512 108.64C526.512 108.56 526.486 108.493 526.432 108.44H526.992C526.886 108.227 526.739 108.027 526.552 107.84H526.472C526.392 107.76 526.299 107.693 526.192 107.64H526.072C525.806 107.507 525.526 107.44 525.232 107.44H522.312V107.64H522.192V107.84H522.352V108.44H522.152V108.84H522.352V109.64H522.192V110.24H522.272V110.64H522.232V110.84H521.872V111.04H521.672V111.24ZM524.832 120.44L524.672 120.04H524.232L523.912 119.28H522.272V120.04H522.632V120.44H524.832ZM521.272 120.44V121.04H522.032L521.792 120.44H521.272ZM524.912 121.24L524.832 121.04H522.352V121.24H522.592V121.44H522.632V122.04H524.392V122.84H521.312V123.44H523.592V124.04H522.192V124.64H523.032V125.04H520.512V125.24H526.152L526.032 125.04H526.152L525.952 124.64H525.632L525.392 124.04L525.112 123.44H526.392L526.112 122.84H528.712L528.352 122.04H524.392L524.152 121.44H525.032L524.912 121.24ZM567.225 103.64H559.785V104.44H562.625V105.04H565.705V105.64H565.625V106.24H566.785V107.04H562.425V107.24H561.585V107.52C561.585 107.707 561.545 107.88 561.465 108.04H564.305C564.118 108.413 563.812 108.6 563.385 108.6H556.745V108.64H557.145V109.44H557.225V110.24H557.025V111.04H556.505V111.64H558.505V112.04H556.825V112.64H555.945V113.44H557.465V113.84H557.185V114.64H556.905V115.44H556.425V116.24H555.985V116.84H557.465V117.44H556.865V118.24H557.105V118.44H557.385V118.84H559.385V119.44H558.025V120.24H558.625V121.04H556.945V121.84H557.625V122.24H557.905V122.84H558.545V123.64H558.305V124.24H557.265V124.84H557.145V125.24H557.105V125.84H557.545V126.44H557.185V126.92C557.185 127.053 557.172 127.16 557.145 127.24H556.745C556.665 127.507 556.518 127.707 556.305 127.84H556.385C556.252 127.947 556.065 128 555.825 128H547.825C547.612 128 547.412 127.947 547.225 127.84H547.145C546.958 127.707 546.812 127.507 546.705 127.24H547.065C547.038 127.16 547.025 127.053 547.025 126.92V126.44H547.385V125.84H546.945V125.24H546.985V124.84H547.105V124.24H548.145V123.64H548.385V122.84H547.745V122.24H547.465V121.84H546.785V121.04H548.465V120.24H547.865V119.44H549.225V118.84H547.225V118.44H546.945V118.24H546.705V117.44H547.305V116.84H545.825V116.24H546.265V115.44H546.745V114.64H547.025V113.84H547.305V113.44H545.785V112.64H546.665V112.04H548.345V111.64H546.345V111.04H546.865V110.24H547.065V109.44H546.985V108.64H546.585V108.6H539.945C539.545 108.6 539.225 108.413 538.985 108.04H536.145C536.118 107.96 536.092 107.88 536.065 107.8C536.012 107.72 535.985 107.627 535.985 107.52V107.24H536.825V107.04H541.185V106.24H540.025V105.64H540.105V105.04H537.025V104.44H534.185V103.64H541.625V103.04H537.465V102.24H538.265V101.44H539.305V101.24H539.905V101.08C539.905 100.813 539.985 100.6 540.145 100.44H539.265C539.478 100.147 539.772 100 540.145 100H563.585C563.958 100 564.252 100.147 564.465 100.44H565.305C565.438 100.627 565.505 100.84 565.505 101.08V101.24H564.905V101.44H563.865V102.24H563.065V103.04H567.225V103.64Z" fill="white"/>
<defs>
<clipPath id="clip0_7_1258">
<rect width="139" height="139" fill="white" transform="translate(121 44)"/>
</clipPath>
</defs>
</svg>
