<svg width="128" height="128" viewBox="0 0 128 128" fill="none" xmlns="http://www.w3.org/2000/svg">
<path d="M117.132 59.0069H121.5V68.9919H117.132V59.0069ZM108.526 71.9154H112.894V56.0834H108.526V71.9154ZM100.064 80.1044H104.432V47.8944H100.064V80.1044ZM92.0198 86.4234H96.3873V41.8702H92.0198V86.4127V86.4234ZM83.4078 75.5432H87.7753V52.4557H83.4078V75.5432ZM74.6592 93.0129H79.0267V33.9979H74.6455V93.0129H74.6592ZM66.05 101.474H70.4175V26.5244H66.05V101.474ZM57.588 89.9034H61.9555V38.0952H57.588V89.9037V89.9034ZM48.834 75.1909H53.2015V53.3534H48.834V75.1909ZM40.3722 69.9852H44.7397V57.9944H40.3722V70.0049V69.9852ZM31.9102 76.4002H36.2777V51.5902H31.9102V76.4082V76.4002ZM23.5847 88.4102H27.9522V38.1689H23.585V88.4189L23.5847 88.4102ZM15.123 80.7347H19.4905V46.8327H15.123V80.7432V80.7347ZM6.5 71.9154H10.8675V56.0834H6.5V71.9154Z" fill="white" fill-opacity="0.2"/>
</svg>
